<svg xmlns="http://www.w3.org/2000/svg" xmlns:xlink="http://www.w3.org/1999/xlink" width="500" zoomAndPan="magnify" viewBox="0 0 375 374.999991" height="500" preserveAspectRatio="xMidYMid meet" version="1.0"><defs><clipPath id="4e88b88f45"><path d="M 104.976562 209.238281 L 360.726562 209.238281 L 360.726562 262.488281 L 104.976562 262.488281 Z M 104.976562 209.238281 " clip-rule="nonzero"/></clipPath><clipPath id="e077f0376a"><path d="M 14.265625 116 L 270 116 L 270 179 L 14.265625 179 Z M 14.265625 116 " clip-rule="nonzero"/></clipPath><clipPath id="61aa9eb056"><path d="M 42.421875 42.421875 L 332.578125 42.421875 L 332.578125 332.578125 L 42.421875 332.578125 Z M 42.421875 42.421875 " clip-rule="nonzero"/></clipPath><clipPath id="2cfa256c3a"><path d="M 187.5 42.421875 C 107.375 42.421875 42.421875 107.375 42.421875 187.5 C 42.421875 267.625 107.375 332.578125 187.5 332.578125 C 267.625 332.578125 332.578125 267.625 332.578125 187.5 C 332.578125 107.375 267.625 42.421875 187.5 42.421875 Z M 187.5 42.421875 " clip-rule="nonzero"/></clipPath><clipPath id="3f8ab139e2"><path d="M 21 136 L 276.742188 136 L 276.742188 199 L 21 199 Z M 21 136 " clip-rule="nonzero"/></clipPath><clipPath id="3b31c654c1"><path d="M 98.25 187.59375 L 354 187.59375 L 354 240.84375 L 98.25 240.84375 Z M 98.25 187.59375 " clip-rule="nonzero"/></clipPath></defs><g clip-path="url(#4e88b88f45)"><path fill="#62ab37" d="M 211.261719 226.738281 C 207.152344 226.738281 203.101562 225.734375 199.472656 223.84375 L 188.574219 214.96875 C 183.847656 211.109375 177.863281 209.121094 171.769531 209.335938 L 107.890625 215.007812 C 106.269531 215.066406 104.976562 216.398438 104.976562 217.960938 C 104.976562 219.523438 106.269531 220.757812 107.890625 220.699219 L 164.648438 217.941406 C 166.886719 217.863281 168.71875 219.484375 168.71875 221.546875 C 168.71875 223.613281 166.886719 225.308594 164.648438 225.347656 L 107.890625 226.96875 C 106.269531 226.988281 104.976562 228.28125 104.976562 229.84375 C 104.976562 231.40625 106.269531 232.660156 107.890625 232.660156 L 164.648438 232.082031 C 166.886719 232.0625 168.71875 233.722656 168.71875 235.785156 C 168.71875 237.851562 166.886719 239.507812 164.648438 239.492188 L 107.890625 238.910156 C 106.269531 238.929688 104.976562 240.183594 104.976562 241.746094 C 104.976562 243.308594 106.269531 244.601562 107.890625 244.640625 L 164.648438 246.261719 C 166.886719 246.300781 168.71875 248 168.71875 250.0625 C 168.71875 252.128906 166.886719 253.746094 164.648438 253.671875 L 107.890625 250.910156 C 106.269531 250.855469 104.976562 252.089844 104.976562 253.652344 C 104.976562 255.214844 106.269531 256.546875 107.890625 256.601562 L 171.769531 262.277344 C 177.863281 262.488281 183.828125 260.480469 188.574219 256.640625 L 199.472656 247.765625 C 203.121094 245.855469 207.152344 244.875 211.261719 244.875 C 211.261719 244.875 272.246094 240.746094 331.109375 248.558594 C 331.109375 248.558594 360.667969 254.597656 360.667969 235.824219 C 360.667969 217.050781 331.109375 223.089844 331.109375 223.089844 C 272.246094 230.867188 211.261719 226.738281 211.261719 226.738281 Z M 211.261719 226.738281 " fill-opacity="1" fill-rule="nonzero"/></g><g clip-path="url(#e077f0376a)"><path fill="#62ab37" d="M 178.0625 156.3125 C 183.0625 164.433594 189.714844 181.117188 218.847656 178.460938 C 246.960938 175.894531 269.070312 163.238281 269.972656 149.089844 C 269.976562 149.269531 269.996094 149.445312 269.992188 149.628906 C 269.992188 149.476562 270 149.332031 269.996094 149.183594 C 270.007812 148.921875 269.996094 148.65625 269.992188 148.390625 C 269.996094 148.105469 270.007812 147.828125 269.996094 147.546875 C 270.007812 147.300781 269.996094 147.054688 269.992188 146.8125 C 269.996094 146.554688 270.007812 146.296875 269.996094 146.039062 C 270.007812 145.816406 269.992188 145.589844 269.992188 145.367188 C 269.992188 145.5625 269.96875 145.757812 269.960938 145.953125 C 268.925781 132.578125 246.867188 119.007812 218.847656 116.605469 C 189.714844 114.109375 183.574219 130.148438 178.0625 137.414062 C 173.992188 142.78125 165.4375 142.269531 165.4375 142.269531 C 165.4375 142.269531 158.390625 141.902344 143.371094 140.742188 C 128.992188 139.640625 53.738281 133.296875 40.082031 133.296875 C 27.25 133.296875 15.292969 131.832031 14.390625 143.859375 C 14.378906 143.71875 14.355469 143.589844 14.351562 143.449219 L 14.347656 143.207031 C 14.335938 143.671875 14.335938 144.15625 14.351562 144.65625 C 14.335938 145.191406 14.328125 145.75 14.351562 146.339844 L 14.355469 146.398438 C 14.347656 146.699219 14.339844 147 14.34375 147.320312 C 14.347656 147.089844 14.367188 146.871094 14.378906 146.652344 C 15.296875 160.992188 38.164062 158.128906 38.164062 158.128906 C 38.164062 158.128906 128.269531 153.496094 143.285156 152.398438 C 159.535156 151.207031 165.4375 151.058594 165.4375 151.058594 C 165.4375 151.058594 174.453125 150.457031 178.0625 156.3125 " fill-opacity="1" fill-rule="nonzero"/></g><g clip-path="url(#61aa9eb056)"><g clip-path="url(#2cfa256c3a)"><path fill="#317b22" d="M 42.421875 42.421875 L 332.578125 42.421875 L 332.578125 332.578125 L 42.421875 332.578125 Z M 42.421875 42.421875 " fill-opacity="1" fill-rule="nonzero"/></g></g><g clip-path="url(#3f8ab139e2)"><path fill="#ffffff" d="M 184.792969 176.417969 C 189.789062 184.539062 196.441406 201.222656 225.574219 198.566406 C 253.6875 196 275.796875 183.347656 276.699219 169.195312 C 276.703125 169.378906 276.722656 169.554688 276.71875 169.734375 C 276.71875 169.582031 276.726562 169.441406 276.722656 169.292969 C 276.734375 169.027344 276.722656 168.761719 276.71875 168.496094 C 276.722656 168.214844 276.734375 167.933594 276.722656 167.652344 C 276.734375 167.40625 276.722656 167.164062 276.71875 166.921875 C 276.722656 166.664062 276.734375 166.40625 276.722656 166.148438 C 276.734375 165.921875 276.71875 165.699219 276.71875 165.472656 C 276.71875 165.667969 276.695312 165.863281 276.6875 166.058594 C 275.652344 152.6875 253.59375 139.113281 225.574219 136.714844 C 196.441406 134.214844 190.300781 150.253906 184.792969 157.523438 C 180.71875 162.886719 172.167969 162.375 172.167969 162.375 C 172.167969 162.375 165.117188 162.007812 150.097656 160.851562 C 135.71875 159.746094 60.464844 153.40625 46.808594 153.40625 C 33.976562 153.40625 22.019531 151.9375 21.117188 163.96875 C 21.105469 163.828125 21.082031 163.699219 21.082031 163.558594 L 21.078125 163.316406 C 21.0625 163.777344 21.0625 164.261719 21.082031 164.761719 C 21.0625 165.300781 21.054688 165.855469 21.082031 166.445312 L 21.082031 166.503906 C 21.078125 166.804688 21.066406 167.109375 21.070312 167.429688 C 21.078125 167.195312 21.09375 166.980469 21.105469 166.757812 C 22.023438 181.101562 44.890625 178.234375 44.890625 178.234375 C 44.890625 178.234375 134.996094 173.601562 150.015625 172.503906 C 166.261719 171.3125 172.167969 171.167969 172.167969 171.167969 C 172.167969 171.167969 181.183594 170.5625 184.792969 176.417969 " fill-opacity="1" fill-rule="nonzero"/></g><g clip-path="url(#3b31c654c1)"><path fill="#ffffff" d="M 204.535156 205.09375 C 200.425781 205.09375 196.375 204.089844 192.746094 202.199219 L 181.847656 193.324219 C 177.121094 189.464844 171.136719 187.480469 165.042969 187.691406 L 101.164062 193.363281 C 99.542969 193.421875 98.25 194.753906 98.25 196.316406 C 98.25 197.878906 99.542969 199.113281 101.164062 199.054688 L 157.921875 196.296875 C 160.160156 196.21875 161.992188 197.839844 161.992188 199.902344 C 161.992188 201.96875 160.160156 203.667969 157.921875 203.703125 L 101.164062 205.324219 C 99.542969 205.34375 98.25 206.636719 98.25 208.199219 C 98.25 209.761719 99.542969 211.015625 101.164062 211.015625 L 157.921875 210.4375 C 160.160156 210.417969 161.992188 212.078125 161.992188 214.140625 C 161.992188 216.207031 160.160156 217.867188 157.921875 217.847656 L 101.164062 217.269531 C 99.542969 217.285156 98.25 218.542969 98.25 220.105469 C 98.25 221.667969 99.542969 222.960938 101.164062 222.996094 L 157.921875 224.617188 C 160.160156 224.65625 161.992188 226.355469 161.992188 228.417969 C 161.992188 230.484375 160.160156 232.105469 157.921875 232.027344 L 101.164062 229.269531 C 99.542969 229.210938 98.25 230.445312 98.25 232.007812 C 98.25 233.570312 99.542969 234.902344 101.164062 234.960938 L 165.042969 240.632812 C 171.136719 240.84375 177.101562 238.835938 181.847656 235 L 192.746094 226.125 C 196.394531 224.214844 200.425781 223.230469 204.535156 223.230469 C 204.535156 223.230469 265.519531 219.101562 324.382812 226.914062 C 324.382812 226.914062 353.941406 232.953125 353.941406 214.179688 C 353.941406 195.410156 324.382812 201.449219 324.382812 201.449219 C 265.519531 209.222656 204.535156 205.09375 204.535156 205.09375 Z M 204.535156 205.09375 " fill-opacity="1" fill-rule="nonzero"/></g></svg>