<svg xmlns="http://www.w3.org/2000/svg" xmlns:xlink="http://www.w3.org/1999/xlink" width="500" zoomAndPan="magnify" viewBox="0 0 375 374.999991" height="500" preserveAspectRatio="xMidYMid meet" version="1.0"><defs><clipPath id="ef5fe86941"><path d="M 10.886719 133 L 282.386719 133 L 282.386719 200 L 10.886719 200 Z M 10.886719 133 " clip-rule="nonzero"/></clipPath><clipPath id="e819553793"><path d="M 92.605469 187.222656 L 364.105469 187.222656 L 364.105469 244.222656 L 92.605469 244.222656 Z M 92.605469 187.222656 " clip-rule="nonzero"/></clipPath></defs><g clip-path="url(#ef5fe86941)"><path fill="#f7ce5b" d="M 184.621094 175.722656 C 189.933594 184.355469 197.003906 202.09375 227.984375 199.269531 C 257.871094 196.542969 281.382812 183.085938 282.34375 168.042969 C 282.347656 168.234375 282.367188 168.421875 282.363281 168.613281 C 282.363281 168.453125 282.371094 168.300781 282.367188 168.144531 C 282.378906 167.863281 282.367188 167.578125 282.363281 167.296875 C 282.367188 166.996094 282.378906 166.699219 282.367188 166.402344 C 282.378906 166.140625 282.367188 165.878906 282.363281 165.621094 C 282.367188 165.347656 282.378906 165.074219 282.367188 164.800781 C 282.378906 164.5625 282.363281 164.320312 282.363281 164.082031 C 282.363281 164.289062 282.339844 164.5 282.328125 164.707031 C 281.226562 150.488281 257.773438 136.058594 227.984375 133.503906 C 197.003906 130.851562 190.476562 147.902344 184.621094 155.628906 C 180.289062 161.335938 171.195312 160.789062 171.195312 160.789062 C 171.195312 160.789062 163.703125 160.398438 147.734375 159.167969 C 132.445312 157.992188 52.429688 151.25 37.910156 151.25 C 24.269531 151.25 11.554688 149.691406 10.59375 162.480469 C 10.582031 162.332031 10.558594 162.195312 10.554688 162.046875 L 10.550781 161.789062 C 10.535156 162.28125 10.535156 162.792969 10.554688 163.328125 C 10.535156 163.898438 10.527344 164.492188 10.554688 165.117188 L 10.558594 165.179688 C 10.550781 165.5 10.539062 165.820312 10.542969 166.164062 C 10.550781 165.914062 10.570312 165.683594 10.582031 165.449219 C 11.558594 180.699219 35.871094 177.652344 35.871094 177.652344 C 35.871094 177.652344 131.675781 172.726562 147.644531 171.558594 C 164.917969 170.292969 171.195312 170.136719 171.195312 170.136719 C 171.195312 170.136719 180.78125 169.496094 184.621094 175.722656 " fill-opacity="1" fill-rule="nonzero"/></g><g clip-path="url(#e819553793)"><path fill="#f7ce5b" d="M 205.613281 206.207031 C 201.242188 206.207031 196.933594 205.140625 193.078125 203.132812 L 181.488281 193.695312 C 176.460938 189.59375 170.101562 187.480469 163.621094 187.707031 L 95.703125 193.738281 C 93.976562 193.796875 92.605469 195.214844 92.605469 196.875 C 92.605469 198.535156 93.976562 199.847656 95.703125 199.789062 L 156.050781 196.855469 C 158.429688 196.773438 160.378906 198.496094 160.378906 200.691406 C 160.378906 202.886719 158.429688 204.691406 156.050781 204.730469 L 95.703125 206.453125 C 93.976562 206.476562 92.605469 207.851562 92.605469 209.511719 C 92.605469 211.171875 93.976562 212.507812 95.703125 212.507812 L 156.050781 211.890625 C 158.429688 211.871094 160.378906 213.632812 160.378906 215.828125 C 160.378906 218.023438 158.429688 219.789062 156.050781 219.769531 L 95.703125 219.152344 C 93.976562 219.171875 92.605469 220.507812 92.605469 222.167969 C 92.605469 223.828125 93.976562 225.203125 95.703125 225.246094 L 156.050781 226.96875 C 158.429688 227.007812 160.378906 228.8125 160.378906 231.007812 C 160.378906 233.203125 158.429688 234.925781 156.050781 234.84375 L 95.703125 231.910156 C 93.976562 231.851562 92.605469 233.164062 92.605469 234.824219 C 92.605469 236.488281 93.976562 237.902344 95.703125 237.964844 L 163.621094 243.996094 C 170.101562 244.21875 176.441406 242.085938 181.488281 238.003906 L 193.078125 228.566406 C 196.953125 226.539062 201.242188 225.492188 205.613281 225.492188 C 205.613281 225.492188 270.453125 221.101562 333.039062 229.410156 C 333.039062 229.410156 364.46875 235.828125 364.46875 215.871094 C 364.46875 195.910156 333.039062 202.332031 333.039062 202.332031 C 270.453125 210.597656 205.613281 206.207031 205.613281 206.207031 Z M 205.613281 206.207031 " fill-opacity="1" fill-rule="nonzero"/></g></svg>