<svg xmlns="http://www.w3.org/2000/svg" xmlns:xlink="http://www.w3.org/1999/xlink" width="500" zoomAndPan="magnify" viewBox="0 0 375 374.999991" height="500" preserveAspectRatio="xMidYMid meet" version="1.0"><defs><g/><clipPath id="bd514c2455"><path d="M 153.4375 162.496094 L 259 162.496094 L 259 184.246094 L 153.4375 184.246094 Z M 153.4375 162.496094 " clip-rule="nonzero"/></clipPath><clipPath id="55664e30c9"><path d="M 116 123 L 221.550781 123 L 221.550781 150 L 116 150 Z M 116 123 " clip-rule="nonzero"/></clipPath><clipPath id="837ae90795"><path d="M 127.625 93.425781 L 247.375 93.425781 L 247.375 213.179688 L 127.625 213.179688 Z M 127.625 93.425781 " clip-rule="nonzero"/></clipPath><clipPath id="c14ce82b34"><path d="M 187.5 93.425781 C 154.429688 93.425781 127.625 120.234375 127.625 153.300781 C 127.625 186.371094 154.429688 213.179688 187.5 213.179688 C 220.570312 213.179688 247.375 186.371094 247.375 153.300781 C 247.375 120.234375 220.570312 93.425781 187.5 93.425781 Z M 187.5 93.425781 " clip-rule="nonzero"/></clipPath><clipPath id="5d9424e10c"><path d="M 118.578125 132 L 224.328125 132 L 224.328125 158 L 118.578125 158 Z M 118.578125 132 " clip-rule="nonzero"/></clipPath><clipPath id="95175f61b6"><path d="M 150.660156 153.566406 L 256.410156 153.566406 L 256.410156 175.316406 L 150.660156 175.316406 Z M 150.660156 153.566406 " clip-rule="nonzero"/></clipPath></defs><g clip-path="url(#bd514c2455)"><path fill="#62ab37" d="M 197.304688 169.496094 C 195.609375 169.496094 193.9375 169.082031 192.441406 168.300781 L 187.945312 164.640625 C 185.992188 163.046875 183.527344 162.226562 181.011719 162.316406 L 154.652344 164.65625 C 153.984375 164.679688 153.449219 165.230469 153.449219 165.875 C 153.449219 166.519531 153.984375 167.027344 154.652344 167.003906 L 178.074219 165.867188 C 178.996094 165.835938 179.753906 166.503906 179.753906 167.355469 C 179.753906 168.207031 178.996094 168.90625 178.074219 168.921875 L 154.652344 169.59375 C 153.984375 169.601562 153.449219 170.132812 153.449219 170.777344 C 153.449219 171.421875 153.984375 171.941406 154.652344 171.941406 L 178.074219 171.703125 C 178.996094 171.695312 179.753906 172.378906 179.753906 173.230469 C 179.753906 174.082031 178.996094 174.765625 178.074219 174.757812 L 154.652344 174.519531 C 153.984375 174.527344 153.449219 175.046875 153.449219 175.691406 C 153.449219 176.335938 153.984375 176.867188 154.652344 176.882812 L 178.074219 177.550781 C 178.996094 177.570312 179.753906 178.269531 179.753906 179.121094 C 179.753906 179.972656 178.996094 180.640625 178.074219 180.609375 L 154.652344 179.472656 C 153.984375 179.449219 153.449219 179.957031 153.449219 180.601562 C 153.449219 181.246094 153.984375 181.796875 154.652344 181.820312 L 181.011719 184.160156 C 183.527344 184.246094 185.984375 183.417969 187.945312 181.835938 L 192.441406 178.171875 C 193.945312 177.386719 195.609375 176.980469 197.304688 176.980469 C 197.304688 176.980469 222.46875 175.277344 246.757812 178.5 C 246.757812 178.5 258.953125 180.992188 258.953125 173.246094 C 258.953125 165.5 246.757812 167.992188 246.757812 167.992188 C 222.46875 171.199219 197.304688 169.496094 197.304688 169.496094 Z M 197.304688 169.496094 " fill-opacity="1" fill-rule="nonzero"/></g><g clip-path="url(#55664e30c9)"><path fill="#62ab37" d="M 183.601562 140.429688 C 185.664062 143.78125 188.410156 150.667969 200.433594 149.570312 C 212.035156 148.511719 221.160156 143.289062 221.535156 137.449219 C 221.535156 137.523438 221.542969 137.597656 221.542969 137.671875 C 221.542969 137.609375 221.542969 137.550781 221.542969 137.488281 C 221.546875 137.378906 221.542969 137.269531 221.542969 137.160156 C 221.542969 137.042969 221.546875 136.925781 221.542969 136.8125 C 221.546875 136.710938 221.542969 136.609375 221.542969 136.507812 C 221.542969 136.402344 221.546875 136.296875 221.542969 136.191406 C 221.546875 136.097656 221.542969 136.003906 221.542969 135.914062 C 221.542969 135.992188 221.53125 136.074219 221.527344 136.152344 C 221.101562 130.636719 211.996094 125.035156 200.433594 124.042969 C 188.410156 123.011719 185.875 129.632812 183.601562 132.628906 C 181.921875 134.84375 178.390625 134.632812 178.390625 134.632812 C 178.390625 134.632812 175.480469 134.480469 169.285156 134.003906 C 163.351562 133.546875 132.289062 130.929688 126.65625 130.929688 C 121.359375 130.929688 116.421875 130.328125 116.050781 135.289062 C 116.046875 135.234375 116.039062 135.179688 116.035156 135.121094 L 116.035156 135.019531 C 116.027344 135.214844 116.027344 135.410156 116.035156 135.617188 C 116.027344 135.839844 116.027344 136.070312 116.035156 136.3125 L 116.039062 136.335938 C 116.035156 136.460938 116.03125 136.585938 116.03125 136.71875 C 116.035156 136.625 116.042969 136.535156 116.046875 136.441406 C 116.425781 142.363281 125.863281 141.179688 125.863281 141.179688 C 125.863281 141.179688 163.050781 139.265625 169.25 138.8125 C 175.953125 138.324219 178.390625 138.261719 178.390625 138.261719 C 178.390625 138.261719 182.113281 138.011719 183.601562 140.429688 " fill-opacity="1" fill-rule="nonzero"/></g><g clip-path="url(#837ae90795)"><g clip-path="url(#c14ce82b34)"><path fill="#ffffff" d="M 127.625 93.425781 L 247.375 93.425781 L 247.375 213.179688 L 127.625 213.179688 Z M 127.625 93.425781 " fill-opacity="1" fill-rule="nonzero"/></g></g><g clip-path="url(#5d9424e10c)"><path fill="#317b22" d="M 186.378906 148.726562 C 188.441406 152.078125 191.1875 158.964844 203.210938 157.871094 C 214.8125 156.808594 223.9375 151.585938 224.308594 145.746094 C 224.3125 145.820312 224.320312 145.894531 224.316406 145.96875 C 224.316406 145.90625 224.320312 145.847656 224.320312 145.785156 C 224.324219 145.675781 224.320312 145.566406 224.316406 145.457031 C 224.320312 145.339844 224.324219 145.226562 224.320312 145.109375 C 224.324219 145.007812 224.320312 144.910156 224.316406 144.808594 C 224.320312 144.703125 224.324219 144.59375 224.320312 144.488281 C 224.324219 144.394531 224.316406 144.304688 224.316406 144.210938 C 224.316406 144.292969 224.308594 144.371094 224.304688 144.453125 C 223.878906 138.933594 214.773438 133.332031 203.210938 132.339844 C 191.1875 131.3125 188.652344 137.929688 186.378906 140.929688 C 184.695312 143.144531 181.167969 142.933594 181.167969 142.933594 C 181.167969 142.933594 178.257812 142.78125 172.058594 142.304688 C 166.125 141.847656 135.066406 139.230469 129.429688 139.230469 C 124.136719 139.230469 119.199219 138.625 118.828125 143.589844 C 118.824219 143.53125 118.8125 143.476562 118.8125 143.421875 L 118.8125 143.320312 C 118.804688 143.511719 118.804688 143.710938 118.8125 143.917969 C 118.804688 144.140625 118.800781 144.367188 118.8125 144.613281 L 118.8125 144.636719 C 118.8125 144.761719 118.804688 144.886719 118.808594 145.019531 C 118.8125 144.921875 118.820312 144.832031 118.824219 144.742188 C 119.203125 150.660156 128.640625 149.476562 128.640625 149.476562 C 128.640625 149.476562 165.828125 147.566406 172.023438 147.113281 C 178.730469 146.621094 181.167969 146.5625 181.167969 146.5625 C 181.167969 146.5625 184.886719 146.3125 186.378906 148.726562 " fill-opacity="1" fill-rule="nonzero"/></g><g clip-path="url(#95175f61b6)"><path fill="#317b22" d="M 194.53125 160.5625 C 192.832031 160.5625 191.160156 160.148438 189.664062 159.371094 L 185.167969 155.707031 C 183.21875 154.117188 180.75 153.296875 178.234375 153.382812 L 151.875 155.722656 C 151.207031 155.746094 150.671875 156.296875 150.671875 156.941406 C 150.671875 157.585938 151.207031 158.097656 151.875 158.070312 L 175.296875 156.933594 C 176.21875 156.902344 176.976562 157.570312 176.976562 158.421875 C 176.976562 159.273438 176.21875 159.972656 175.296875 159.992188 L 151.875 160.660156 C 151.207031 160.667969 150.671875 161.199219 150.671875 161.84375 C 150.671875 162.488281 151.207031 163.007812 151.875 163.007812 L 175.296875 162.769531 C 176.21875 162.761719 176.976562 163.445312 176.976562 164.296875 C 176.976562 165.148438 176.21875 165.832031 175.296875 165.824219 L 151.875 165.585938 C 151.207031 165.59375 150.671875 166.113281 150.671875 166.757812 C 150.671875 167.402344 151.207031 167.933594 151.875 167.953125 L 175.296875 168.621094 C 176.21875 168.636719 176.976562 169.335938 176.976562 170.1875 C 176.976562 171.039062 176.21875 171.707031 175.296875 171.675781 L 151.875 170.539062 C 151.207031 170.515625 150.671875 171.023438 150.671875 171.667969 C 150.671875 172.3125 151.207031 172.863281 151.875 172.886719 L 178.234375 175.226562 C 180.75 175.316406 183.210938 174.488281 185.167969 172.902344 L 189.664062 169.242188 C 191.171875 168.453125 192.832031 168.046875 194.53125 168.046875 C 194.53125 168.046875 219.695312 166.34375 243.980469 169.566406 C 243.980469 169.566406 256.179688 172.058594 256.179688 164.3125 C 256.179688 156.566406 243.980469 159.058594 243.980469 159.058594 C 219.695312 162.265625 194.53125 160.5625 194.53125 160.5625 Z M 194.53125 160.5625 " fill-opacity="1" fill-rule="nonzero"/></g><g fill="#ffffff" fill-opacity="1"><g transform="translate(94.990293, 265.67824)"><g><path d="M 22.765625 -23.109375 C 22.765625 -21.085938 22.296875 -19.269531 21.359375 -17.65625 C 20.421875 -16.050781 19.175781 -14.632812 17.625 -13.40625 C 18.09375 -12.695312 18.570312 -11.875 19.0625 -10.9375 C 19.5625 -10 20.007812 -9.007812 20.40625 -7.96875 C 20.800781 -6.9375 21.125 -5.898438 21.375 -4.859375 C 21.625 -3.816406 21.75 -2.859375 21.75 -1.984375 C 21.75 -1.046875 21.519531 -0.203125 21.0625 0.546875 C 20.613281 1.296875 19.847656 1.671875 18.765625 1.671875 C 17.859375 1.671875 17.070312 1.226562 16.40625 0.34375 C 15.75 -0.53125 15.164062 -1.570312 14.65625 -2.78125 C 14.144531 -4 13.675781 -5.238281 13.25 -6.5 C 12.820312 -7.757812 12.421875 -8.769531 12.046875 -9.53125 C 11.515625 -9.351562 11 -9.15625 10.5 -8.9375 C 10 -8.71875 9.488281 -8.507812 8.96875 -8.3125 C 8.9375 -7.664062 8.882812 -6.773438 8.8125 -5.640625 C 8.738281 -4.515625 8.578125 -3.394531 8.328125 -2.28125 C 8.078125 -1.164062 7.703125 -0.203125 7.203125 0.609375 C 6.703125 1.429688 6.015625 1.84375 5.140625 1.84375 C 4.171875 1.84375 3.421875 1.445312 2.890625 0.65625 C 2.367188 -0.132812 2 -1.070312 1.78125 -2.15625 C 1.5625 -3.238281 1.4375 -4.34375 1.40625 -5.46875 C 1.375 -6.59375 1.359375 -7.476562 1.359375 -8.125 C 1.359375 -9.507812 1.382812 -10.863281 1.4375 -12.1875 C 1.5 -13.519531 1.53125 -14.878906 1.53125 -16.265625 C 1.53125 -17.523438 1.507812 -18.78125 1.46875 -20.03125 C 1.425781 -21.289062 1.40625 -22.566406 1.40625 -23.859375 C 1.40625 -24.148438 1.40625 -24.523438 1.40625 -24.984375 C 1.40625 -25.441406 1.425781 -25.910156 1.46875 -26.390625 C 1.507812 -26.867188 1.5625 -27.328125 1.625 -27.765625 C 1.6875 -28.210938 1.789062 -28.566406 1.9375 -28.828125 C 2.226562 -29.441406 2.894531 -30.023438 3.9375 -30.578125 C 4.976562 -31.140625 6.117188 -31.632812 7.359375 -32.0625 C 8.609375 -32.488281 9.820312 -32.820312 11 -33.0625 C 12.1875 -33.3125 13.078125 -33.4375 13.671875 -33.4375 C 15.160156 -33.4375 16.476562 -33.15625 17.625 -32.59375 C 18.769531 -32.039062 19.722656 -31.289062 20.484375 -30.34375 C 21.242188 -29.394531 21.8125 -28.296875 22.1875 -27.046875 C 22.570312 -25.804688 22.765625 -24.492188 22.765625 -23.109375 Z M 14.640625 -22.5 C 14.640625 -23.257812 14.460938 -23.835938 14.109375 -24.234375 C 13.753906 -24.628906 13.179688 -24.828125 12.390625 -24.828125 C 11.804688 -24.828125 11.210938 -24.722656 10.609375 -24.515625 C 10.015625 -24.316406 9.46875 -24.082031 8.96875 -23.8125 C 9.082031 -21.5 9.125 -19.203125 9.09375 -16.921875 C 9.707031 -17.128906 10.335938 -17.390625 10.984375 -17.703125 C 11.628906 -18.023438 12.222656 -18.421875 12.765625 -18.890625 C 13.304688 -19.359375 13.753906 -19.882812 14.109375 -20.46875 C 14.460938 -21.0625 14.640625 -21.738281 14.640625 -22.5 Z M 14.640625 -22.5 "/></g></g><g transform="translate(117.97369, 265.67824)"><g><path d="M 19.734375 -7.828125 C 19.734375 -6.828125 19.414062 -5.847656 18.78125 -4.890625 C 18.15625 -3.941406 17.363281 -3.09375 16.40625 -2.34375 C 15.457031 -1.601562 14.441406 -1.003906 13.359375 -0.546875 C 12.273438 -0.0976562 11.28125 0.125 10.375 0.125 C 8.820312 0.125 7.4375 -0.257812 6.21875 -1.03125 C 5 -1.8125 3.976562 -2.800781 3.15625 -4 C 2.34375 -5.195312 1.722656 -6.519531 1.296875 -7.96875 C 0.867188 -9.425781 0.65625 -10.84375 0.65625 -12.21875 C 0.65625 -13.6875 0.859375 -15.253906 1.265625 -16.921875 C 1.679688 -18.585938 2.304688 -20.125 3.140625 -21.53125 C 3.972656 -22.9375 5.023438 -24.109375 6.296875 -25.046875 C 7.578125 -25.984375 9.097656 -26.453125 10.859375 -26.453125 C 11.847656 -26.453125 12.796875 -26.28125 13.703125 -25.9375 C 14.617188 -25.601562 15.410156 -25.128906 16.078125 -24.515625 C 16.753906 -23.898438 17.296875 -23.164062 17.703125 -22.3125 C 18.117188 -21.46875 18.328125 -20.519531 18.328125 -19.46875 C 18.328125 -18.09375 18.03125 -16.800781 17.4375 -15.59375 C 16.851562 -14.394531 16.078125 -13.351562 15.109375 -12.46875 C 14.148438 -11.59375 13.039062 -10.882812 11.78125 -10.34375 C 10.519531 -9.800781 9.226562 -9.503906 7.90625 -9.453125 C 8.03125 -8.597656 8.375 -7.976562 8.9375 -7.59375 C 9.507812 -7.21875 10.191406 -7.03125 10.984375 -7.03125 C 11.566406 -7.03125 12.132812 -7.175781 12.6875 -7.46875 C 13.25 -7.757812 13.796875 -8.085938 14.328125 -8.453125 C 14.859375 -8.828125 15.378906 -9.160156 15.890625 -9.453125 C 16.398438 -9.742188 16.921875 -9.890625 17.453125 -9.890625 C 18.035156 -9.890625 18.5625 -9.695312 19.03125 -9.3125 C 19.5 -8.9375 19.734375 -8.441406 19.734375 -7.828125 Z M 12.609375 -18.59375 C 12.609375 -18.96875 12.503906 -19.359375 12.296875 -19.765625 C 12.097656 -20.179688 11.78125 -20.390625 11.34375 -20.390625 C 10.695312 -20.390625 10.148438 -20.21875 9.703125 -19.875 C 9.265625 -19.539062 8.898438 -19.117188 8.609375 -18.609375 C 8.316406 -18.097656 8.085938 -17.546875 7.921875 -16.953125 C 7.765625 -16.367188 7.671875 -15.832031 7.640625 -15.34375 C 8.054688 -15.425781 8.546875 -15.539062 9.109375 -15.6875 C 9.679688 -15.832031 10.222656 -16.03125 10.734375 -16.28125 C 11.253906 -16.53125 11.695312 -16.84375 12.0625 -17.21875 C 12.425781 -17.601562 12.609375 -18.0625 12.609375 -18.59375 Z M 12.609375 -18.59375 "/></g></g><g transform="translate(138.144587, 265.67824)"><g><path d="M 17.625 -16.875 C 17.625 -16.726562 17.609375 -16.570312 17.578125 -16.40625 C 17.546875 -16.25 17.503906 -16.097656 17.453125 -15.953125 C 17.179688 -15.273438 16.765625 -14.707031 16.203125 -14.25 C 15.648438 -13.800781 14.992188 -13.578125 14.234375 -13.578125 C 13.097656 -13.578125 12.320312 -14.148438 11.90625 -15.296875 C 11.851562 -15.441406 11.828125 -15.609375 11.828125 -15.796875 C 11.828125 -15.984375 11.8125 -16.179688 11.78125 -16.390625 L 11.78125 -17.671875 C 11.71875 -18.078125 11.613281 -18.394531 11.46875 -18.625 C 11.320312 -18.863281 11.070312 -18.984375 10.71875 -18.984375 C 10.21875 -18.984375 9.738281 -18.664062 9.28125 -18.03125 C 8.832031 -17.40625 8.441406 -16.660156 8.109375 -15.796875 C 7.773438 -14.929688 7.503906 -14.046875 7.296875 -13.140625 C 7.085938 -12.234375 6.984375 -11.5 6.984375 -10.9375 C 6.984375 -10.5 7.007812 -9.960938 7.0625 -9.328125 C 7.125 -8.703125 7.242188 -8.097656 7.421875 -7.515625 C 7.597656 -6.929688 7.835938 -6.425781 8.140625 -6 C 8.453125 -5.570312 8.859375 -5.359375 9.359375 -5.359375 C 9.859375 -5.359375 10.316406 -5.507812 10.734375 -5.8125 C 11.160156 -6.125 11.582031 -6.488281 12 -6.90625 C 12.375 -7.25 12.789062 -7.609375 13.25 -7.984375 C 13.707031 -8.367188 14.226562 -8.5625 14.8125 -8.5625 C 15.539062 -8.5625 16.117188 -8.296875 16.546875 -7.765625 C 16.972656 -7.242188 17.1875 -6.648438 17.1875 -5.984375 C 17.1875 -4.984375 16.921875 -4.050781 16.390625 -3.1875 C 15.859375 -2.320312 15.195312 -1.570312 14.40625 -0.9375 C 13.625 -0.3125 12.75 0.179688 11.78125 0.546875 C 10.8125 0.910156 9.890625 1.09375 9.015625 1.09375 C 7.429688 1.09375 6.085938 0.695312 4.984375 -0.09375 C 3.890625 -0.882812 3.003906 -1.882812 2.328125 -3.09375 C 1.648438 -4.3125 1.164062 -5.640625 0.875 -7.078125 C 0.582031 -8.515625 0.4375 -9.875 0.4375 -11.15625 C 0.4375 -12.65625 0.640625 -14.273438 1.046875 -16.015625 C 1.460938 -17.765625 2.09375 -19.382812 2.9375 -20.875 C 3.789062 -22.363281 4.882812 -23.609375 6.21875 -24.609375 C 7.550781 -25.609375 9.140625 -26.109375 10.984375 -26.109375 C 12.128906 -26.109375 13.117188 -25.859375 13.953125 -25.359375 C 14.785156 -24.859375 15.472656 -24.203125 16.015625 -23.390625 C 16.554688 -22.585938 16.96875 -21.6875 17.25 -20.6875 C 17.53125 -19.695312 17.671875 -18.71875 17.671875 -17.75 C 17.671875 -17.601562 17.671875 -17.457031 17.671875 -17.3125 C 17.671875 -17.164062 17.65625 -17.019531 17.625 -16.875 Z M 17.625 -16.875 "/></g></g><g transform="translate(156.909234, 265.67824)"><g><path d="M 8.5625 -30.671875 C 8.5625 -30.265625 8.453125 -29.898438 8.234375 -29.578125 C 8.015625 -29.253906 7.726562 -28.96875 7.375 -28.71875 C 7.03125 -28.46875 6.648438 -28.273438 6.234375 -28.140625 C 5.828125 -28.015625 5.445312 -27.953125 5.09375 -27.953125 C 4.507812 -27.953125 4 -28.097656 3.5625 -28.390625 C 3.125 -28.679688 2.90625 -29.132812 2.90625 -29.75 C 2.90625 -30.1875 3.015625 -30.570312 3.234375 -30.90625 C 3.453125 -31.25 3.722656 -31.53125 4.046875 -31.75 C 4.367188 -31.96875 4.734375 -32.132812 5.140625 -32.25 C 5.546875 -32.375 5.941406 -32.4375 6.328125 -32.4375 C 6.878906 -32.4375 7.390625 -32.300781 7.859375 -32.03125 C 8.328125 -31.769531 8.5625 -31.316406 8.5625 -30.671875 Z M 8.921875 -15.734375 C 8.921875 -15.328125 8.921875 -14.894531 8.921875 -14.4375 C 8.921875 -13.976562 8.90625 -13.546875 8.875 -13.140625 C 8.84375 -12.640625 8.828125 -11.972656 8.828125 -11.140625 C 8.828125 -10.304688 8.796875 -9.40625 8.734375 -8.4375 C 8.679688 -7.46875 8.585938 -6.484375 8.453125 -5.484375 C 8.328125 -4.492188 8.117188 -3.585938 7.828125 -2.765625 C 7.535156 -1.941406 7.144531 -1.273438 6.65625 -0.765625 C 6.175781 -0.253906 5.566406 0.015625 4.828125 0.046875 C 4.273438 0.078125 3.804688 -0.140625 3.421875 -0.609375 C 3.046875 -1.078125 2.734375 -1.6875 2.484375 -2.4375 C 2.234375 -3.1875 2.050781 -4.019531 1.9375 -4.9375 C 1.820312 -5.863281 1.734375 -6.757812 1.671875 -7.625 C 1.609375 -8.488281 1.578125 -9.285156 1.578125 -10.015625 C 1.578125 -10.753906 1.578125 -11.296875 1.578125 -11.640625 C 1.578125 -12.109375 1.578125 -12.773438 1.578125 -13.640625 C 1.578125 -14.503906 1.609375 -15.4375 1.671875 -16.4375 C 1.734375 -17.4375 1.84375 -18.445312 2 -19.46875 C 2.15625 -20.488281 2.390625 -21.425781 2.703125 -22.28125 C 3.015625 -23.132812 3.414062 -23.820312 3.90625 -24.34375 C 4.40625 -24.875 5.035156 -25.140625 5.796875 -25.140625 C 6.585938 -25.140625 7.1875 -24.742188 7.59375 -23.953125 C 8.007812 -23.160156 8.316406 -22.234375 8.515625 -21.171875 C 8.722656 -20.117188 8.84375 -19.070312 8.875 -18.03125 C 8.90625 -17 8.921875 -16.234375 8.921875 -15.734375 Z M 8.921875 -15.734375 "/></g></g><g transform="translate(167.63189, 265.67824)"><g><path d="M 21.453125 -13.09375 C 21.453125 -11.800781 21.3125 -10.382812 21.03125 -8.84375 C 20.75 -7.3125 20.28125 -5.882812 19.625 -4.5625 C 18.96875 -3.25 18.101562 -2.148438 17.03125 -1.265625 C 15.957031 -0.390625 14.617188 0.046875 13.015625 0.046875 C 12.597656 0.046875 12.171875 0.0195312 11.734375 -0.03125 C 11.296875 -0.09375 10.878906 -0.195312 10.484375 -0.34375 C 10.085938 -0.5 9.726562 -0.695312 9.40625 -0.9375 C 9.082031 -1.1875 8.832031 -1.519531 8.65625 -1.9375 L 8.265625 4.390625 C 8.234375 5.066406 8.207031 5.875 8.1875 6.8125 C 8.175781 7.75 8.0625 8.640625 7.84375 9.484375 C 7.625 10.335938 7.257812 11.0625 6.75 11.65625 C 6.238281 12.257812 5.5 12.5625 4.53125 12.5625 C 3.96875 12.5625 3.492188 12.273438 3.109375 11.703125 C 2.734375 11.140625 2.4375 10.414062 2.21875 9.53125 C 2 8.65625 1.828125 7.675781 1.703125 6.59375 C 1.585938 5.507812 1.515625 4.46875 1.484375 3.46875 C 1.460938 2.476562 1.453125 1.570312 1.453125 0.75 C 1.453125 -0.0703125 1.453125 -0.675781 1.453125 -1.0625 C 1.453125 -3.019531 1.4375 -4.972656 1.40625 -6.921875 C 1.375 -8.867188 1.359375 -10.820312 1.359375 -12.78125 C 1.359375 -13.132812 1.359375 -13.6875 1.359375 -14.4375 C 1.359375 -15.1875 1.382812 -16 1.4375 -16.875 C 1.5 -17.75 1.597656 -18.65625 1.734375 -19.59375 C 1.867188 -20.53125 2.066406 -21.382812 2.328125 -22.15625 C 2.585938 -22.9375 2.921875 -23.566406 3.328125 -24.046875 C 3.742188 -24.535156 4.242188 -24.78125 4.828125 -24.78125 C 5.210938 -24.78125 5.554688 -24.671875 5.859375 -24.453125 C 6.171875 -24.234375 6.4375 -23.953125 6.65625 -23.609375 C 6.875 -23.273438 7.054688 -22.914062 7.203125 -22.53125 C 7.347656 -22.15625 7.46875 -21.804688 7.5625 -21.484375 C 8.46875 -22.515625 9.515625 -23.289062 10.703125 -23.8125 C 11.890625 -24.34375 13.15625 -24.609375 14.5 -24.609375 C 15.90625 -24.609375 17.054688 -24.210938 17.953125 -23.421875 C 18.847656 -22.628906 19.550781 -21.644531 20.0625 -20.46875 C 20.570312 -19.300781 20.929688 -18.050781 21.140625 -16.71875 C 21.347656 -15.382812 21.453125 -14.175781 21.453125 -13.09375 Z M 15.15625 -13.453125 C 15.15625 -13.890625 15.117188 -14.332031 15.046875 -14.78125 C 14.972656 -15.238281 14.84375 -15.664062 14.65625 -16.0625 C 14.46875 -16.457031 14.195312 -16.78125 13.84375 -17.03125 C 13.488281 -17.28125 13.050781 -17.40625 12.53125 -17.40625 C 11.820312 -17.40625 11.078125 -17.175781 10.296875 -16.71875 C 9.523438 -16.269531 8.945312 -15.75 8.5625 -15.15625 C 8.414062 -14.925781 8.328125 -14.546875 8.296875 -14.015625 C 8.273438 -13.492188 8.265625 -13.097656 8.265625 -12.828125 C 8.265625 -12.628906 8.269531 -12.359375 8.28125 -12.015625 C 8.300781 -11.679688 8.320312 -11.335938 8.34375 -10.984375 C 8.375 -10.628906 8.410156 -10.289062 8.453125 -9.96875 C 8.503906 -9.65625 8.570312 -9.410156 8.65625 -9.234375 C 8.75 -8.960938 8.941406 -8.71875 9.234375 -8.5 C 9.523438 -8.28125 9.84375 -8.082031 10.1875 -7.90625 C 10.539062 -7.726562 10.898438 -7.597656 11.265625 -7.515625 C 11.640625 -7.429688 11.957031 -7.390625 12.21875 -7.390625 C 12.832031 -7.390625 13.328125 -7.625 13.703125 -8.09375 C 14.085938 -8.5625 14.390625 -9.113281 14.609375 -9.75 C 14.828125 -10.394531 14.972656 -11.0625 15.046875 -11.75 C 15.117188 -12.4375 15.15625 -13.003906 15.15625 -13.453125 Z M 15.15625 -13.453125 "/></g></g><g transform="translate(190.439506, 265.67824)"><g><path d="M 19.734375 -7.828125 C 19.734375 -6.828125 19.414062 -5.847656 18.78125 -4.890625 C 18.15625 -3.941406 17.363281 -3.09375 16.40625 -2.34375 C 15.457031 -1.601562 14.441406 -1.003906 13.359375 -0.546875 C 12.273438 -0.0976562 11.28125 0.125 10.375 0.125 C 8.820312 0.125 7.4375 -0.257812 6.21875 -1.03125 C 5 -1.8125 3.976562 -2.800781 3.15625 -4 C 2.34375 -5.195312 1.722656 -6.519531 1.296875 -7.96875 C 0.867188 -9.425781 0.65625 -10.84375 0.65625 -12.21875 C 0.65625 -13.6875 0.859375 -15.253906 1.265625 -16.921875 C 1.679688 -18.585938 2.304688 -20.125 3.140625 -21.53125 C 3.972656 -22.9375 5.023438 -24.109375 6.296875 -25.046875 C 7.578125 -25.984375 9.097656 -26.453125 10.859375 -26.453125 C 11.847656 -26.453125 12.796875 -26.28125 13.703125 -25.9375 C 14.617188 -25.601562 15.410156 -25.128906 16.078125 -24.515625 C 16.753906 -23.898438 17.296875 -23.164062 17.703125 -22.3125 C 18.117188 -21.46875 18.328125 -20.519531 18.328125 -19.46875 C 18.328125 -18.09375 18.03125 -16.800781 17.4375 -15.59375 C 16.851562 -14.394531 16.078125 -13.351562 15.109375 -12.46875 C 14.148438 -11.59375 13.039062 -10.882812 11.78125 -10.34375 C 10.519531 -9.800781 9.226562 -9.503906 7.90625 -9.453125 C 8.03125 -8.597656 8.375 -7.976562 8.9375 -7.59375 C 9.507812 -7.21875 10.191406 -7.03125 10.984375 -7.03125 C 11.566406 -7.03125 12.132812 -7.175781 12.6875 -7.46875 C 13.25 -7.757812 13.796875 -8.085938 14.328125 -8.453125 C 14.859375 -8.828125 15.378906 -9.160156 15.890625 -9.453125 C 16.398438 -9.742188 16.921875 -9.890625 17.453125 -9.890625 C 18.035156 -9.890625 18.5625 -9.695312 19.03125 -9.3125 C 19.5 -8.9375 19.734375 -8.441406 19.734375 -7.828125 Z M 12.609375 -18.59375 C 12.609375 -18.96875 12.503906 -19.359375 12.296875 -19.765625 C 12.097656 -20.179688 11.78125 -20.390625 11.34375 -20.390625 C 10.695312 -20.390625 10.148438 -20.21875 9.703125 -19.875 C 9.265625 -19.539062 8.898438 -19.117188 8.609375 -18.609375 C 8.316406 -18.097656 8.085938 -17.546875 7.921875 -16.953125 C 7.765625 -16.367188 7.671875 -15.832031 7.640625 -15.34375 C 8.054688 -15.425781 8.546875 -15.539062 9.109375 -15.6875 C 9.679688 -15.832031 10.222656 -16.03125 10.734375 -16.28125 C 11.253906 -16.53125 11.695312 -16.84375 12.0625 -17.21875 C 12.425781 -17.601562 12.609375 -18.0625 12.609375 -18.59375 Z M 12.609375 -18.59375 "/></g></g><g transform="translate(210.610403, 265.67824)"><g><path d="M 22.40625 -25.140625 C 22.40625 -22.703125 22.347656 -20.257812 22.234375 -17.8125 C 22.117188 -15.375 21.972656 -12.9375 21.796875 -10.5 C 21.765625 -10.0625 21.734375 -9.46875 21.703125 -8.71875 C 21.679688 -7.976562 21.625 -7.175781 21.53125 -6.3125 C 21.445312 -5.445312 21.332031 -4.570312 21.1875 -3.6875 C 21.039062 -2.8125 20.8125 -2.015625 20.5 -1.296875 C 20.195312 -0.578125 19.800781 0.00390625 19.3125 0.453125 C 18.832031 0.910156 18.238281 1.140625 17.53125 1.140625 C 16.914062 1.140625 16.363281 1.007812 15.875 0.75 C 15.394531 0.488281 14.992188 0.144531 14.671875 -0.28125 C 14.347656 -0.707031 14.097656 -1.191406 13.921875 -1.734375 C 13.753906 -2.273438 13.671875 -2.835938 13.671875 -3.421875 C 13.671875 -4.390625 13.695312 -5.363281 13.75 -6.34375 C 13.8125 -7.332031 13.898438 -8.304688 14.015625 -9.265625 L 9.671875 -8.828125 C 9.578125 -8.066406 9.476562 -7.148438 9.375 -6.078125 C 9.28125 -5.015625 9.078125 -3.988281 8.765625 -3 C 8.460938 -2.019531 8 -1.175781 7.375 -0.46875 C 6.757812 0.226562 5.910156 0.578125 4.828125 0.578125 C 4.160156 0.578125 3.601562 0.421875 3.15625 0.109375 C 2.71875 -0.203125 2.367188 -0.597656 2.109375 -1.078125 C 1.847656 -1.554688 1.65625 -2.085938 1.53125 -2.671875 C 1.414062 -3.265625 1.359375 -3.820312 1.359375 -4.34375 C 1.359375 -6.101562 1.429688 -7.851562 1.578125 -9.59375 C 1.722656 -11.34375 1.828125 -13.097656 1.890625 -14.859375 C 1.953125 -16.703125 1.972656 -18.550781 1.953125 -20.40625 C 1.941406 -22.269531 1.960938 -24.140625 2.015625 -26.015625 C 2.046875 -26.628906 2.066406 -27.347656 2.078125 -28.171875 C 2.097656 -28.992188 2.203125 -29.757812 2.390625 -30.46875 C 2.585938 -31.1875 2.910156 -31.796875 3.359375 -32.296875 C 3.816406 -32.796875 4.5 -33.046875 5.40625 -33.046875 C 6.664062 -33.046875 7.617188 -32.710938 8.265625 -32.046875 C 8.910156 -31.390625 9.363281 -30.570312 9.625 -29.59375 C 9.882812 -28.613281 10.015625 -27.570312 10.015625 -26.46875 C 10.015625 -25.375 10.015625 -24.390625 10.015625 -23.515625 C 10.015625 -22.335938 9.984375 -21.1875 9.921875 -20.0625 C 9.867188 -18.9375 9.8125 -17.800781 9.75 -16.65625 L 14.453125 -17.359375 C 14.484375 -18.796875 14.515625 -20.21875 14.546875 -21.625 C 14.578125 -23.03125 14.632812 -24.4375 14.71875 -25.84375 C 14.75 -26.507812 14.78125 -27.222656 14.8125 -27.984375 C 14.84375 -28.753906 14.957031 -29.457031 15.15625 -30.09375 C 15.363281 -30.738281 15.707031 -31.273438 16.1875 -31.703125 C 16.675781 -32.128906 17.40625 -32.34375 18.375 -32.34375 C 19.1875 -32.34375 19.847656 -32.109375 20.359375 -31.640625 C 20.878906 -31.171875 21.289062 -30.597656 21.59375 -29.921875 C 21.90625 -29.253906 22.117188 -28.535156 22.234375 -27.765625 C 22.347656 -27.003906 22.40625 -26.316406 22.40625 -25.703125 Z M 22.40625 -25.140625 "/></g></g><g transform="translate(234.604542, 265.67824)"><g><path d="M 20.5625 -12.5625 C 20.5625 -10.957031 20.398438 -9.363281 20.078125 -7.78125 C 19.753906 -6.195312 19.210938 -4.78125 18.453125 -3.53125 C 17.691406 -2.289062 16.671875 -1.289062 15.390625 -0.53125 C 14.117188 0.226562 12.535156 0.609375 10.640625 0.609375 C 8.765625 0.609375 7.195312 0.238281 5.9375 -0.5 C 4.675781 -1.25 3.671875 -2.238281 2.921875 -3.46875 C 2.171875 -4.695312 1.640625 -6.085938 1.328125 -7.640625 C 1.023438 -9.191406 0.875 -10.773438 0.875 -12.390625 C 0.875 -14.148438 1.082031 -15.894531 1.5 -17.625 C 1.582031 -18.09375 1.75 -18.742188 2 -19.578125 C 2.25 -20.410156 2.570312 -21.226562 2.96875 -22.03125 C 3.363281 -22.84375 3.816406 -23.539062 4.328125 -24.125 C 4.835938 -24.707031 5.398438 -25 6.015625 -25 C 6.609375 -25 7.078125 -24.835938 7.421875 -24.515625 C 7.773438 -24.191406 8.050781 -23.789062 8.25 -23.3125 C 8.457031 -22.832031 8.59375 -22.320312 8.65625 -21.78125 C 8.71875 -21.238281 8.75 -20.742188 8.75 -20.296875 C 8.75 -19.628906 8.695312 -18.972656 8.59375 -18.328125 C 8.488281 -17.679688 8.378906 -17.035156 8.265625 -16.390625 C 8.148438 -15.515625 8.039062 -14.632812 7.9375 -13.75 C 7.832031 -12.875 7.78125 -12 7.78125 -11.125 C 7.78125 -10.675781 7.800781 -10.179688 7.84375 -9.640625 C 7.882812 -9.097656 7.992188 -8.578125 8.171875 -8.078125 C 8.347656 -7.585938 8.597656 -7.171875 8.921875 -6.828125 C 9.242188 -6.492188 9.695312 -6.328125 10.28125 -6.328125 C 11.039062 -6.328125 11.644531 -6.53125 12.09375 -6.9375 C 12.550781 -7.351562 12.890625 -7.867188 13.109375 -8.484375 C 13.335938 -9.097656 13.476562 -9.753906 13.53125 -10.453125 C 13.59375 -11.160156 13.625 -11.804688 13.625 -12.390625 C 13.625 -13.679688 13.535156 -14.945312 13.359375 -16.1875 C 13.179688 -17.4375 13.019531 -18.707031 12.875 -20 C 12.84375 -20.144531 12.828125 -20.347656 12.828125 -20.609375 C 12.828125 -21.046875 12.898438 -21.484375 13.046875 -21.921875 C 13.191406 -22.367188 13.394531 -22.765625 13.65625 -23.109375 C 13.925781 -23.460938 14.25 -23.75 14.625 -23.96875 C 15.007812 -24.1875 15.4375 -24.296875 15.90625 -24.296875 C 16.550781 -24.296875 17.125 -24.066406 17.625 -23.609375 C 18.125 -23.160156 18.539062 -22.578125 18.875 -21.859375 C 19.207031 -21.140625 19.484375 -20.332031 19.703125 -19.4375 C 19.929688 -18.550781 20.109375 -17.675781 20.234375 -16.8125 C 20.367188 -15.945312 20.457031 -15.132812 20.5 -14.375 C 20.539062 -13.613281 20.5625 -13.007812 20.5625 -12.5625 Z M 20.5625 -12.5625 "/></g></g><g transform="translate(256.533252, 265.67824)"><g><path d="M 22.109375 -14.5 C 22.109375 -13.65625 22.039062 -12.695312 21.90625 -11.625 C 21.769531 -10.550781 21.5625 -9.457031 21.28125 -8.34375 C 21.007812 -7.238281 20.644531 -6.15625 20.1875 -5.09375 C 19.738281 -4.039062 19.179688 -3.097656 18.515625 -2.265625 C 17.859375 -1.429688 17.097656 -0.765625 16.234375 -0.265625 C 15.367188 0.234375 14.367188 0.484375 13.234375 0.484375 C 12.023438 0.484375 10.929688 0.207031 9.953125 -0.34375 C 8.972656 -0.90625 8.128906 -1.671875 7.421875 -2.640625 C 7.335938 -1.847656 7.015625 -1.148438 6.453125 -0.546875 C 5.898438 0.0546875 5.195312 0.359375 4.34375 0.359375 C 3.851562 0.359375 3.4375 0.109375 3.09375 -0.390625 C 2.757812 -0.890625 2.488281 -1.523438 2.28125 -2.296875 C 2.082031 -3.078125 1.929688 -3.9375 1.828125 -4.875 C 1.722656 -5.8125 1.65625 -6.71875 1.625 -7.59375 C 1.59375 -8.476562 1.578125 -9.269531 1.578125 -9.96875 C 1.578125 -10.675781 1.578125 -11.175781 1.578125 -11.46875 C 1.578125 -12.46875 1.582031 -13.460938 1.59375 -14.453125 C 1.613281 -15.453125 1.640625 -16.460938 1.671875 -17.484375 C 1.671875 -17.984375 1.660156 -18.726562 1.640625 -19.71875 C 1.628906 -20.71875 1.640625 -21.828125 1.671875 -23.046875 C 1.703125 -24.265625 1.765625 -25.507812 1.859375 -26.78125 C 1.960938 -28.0625 2.144531 -29.226562 2.40625 -30.28125 C 2.675781 -31.332031 3.046875 -32.191406 3.515625 -32.859375 C 3.984375 -33.535156 4.582031 -33.890625 5.3125 -33.921875 C 5.90625 -33.921875 6.40625 -33.71875 6.8125 -33.3125 C 7.21875 -32.90625 7.5625 -32.363281 7.84375 -31.6875 C 8.125 -31.007812 8.34375 -30.253906 8.5 -29.421875 C 8.664062 -28.585938 8.785156 -27.753906 8.859375 -26.921875 C 8.929688 -26.085938 8.972656 -25.296875 8.984375 -24.546875 C 9.003906 -23.796875 9.015625 -23.1875 9.015625 -22.71875 C 9.015625 -22.632812 9.003906 -22.4375 8.984375 -22.125 C 8.972656 -21.820312 8.96875 -21.492188 8.96875 -21.140625 C 8.96875 -20.785156 8.96875 -20.46875 8.96875 -20.1875 C 8.96875 -19.914062 8.96875 -19.765625 8.96875 -19.734375 C 9.226562 -20.285156 9.609375 -20.828125 10.109375 -21.359375 C 10.609375 -21.890625 11.164062 -22.359375 11.78125 -22.765625 C 12.394531 -23.171875 13.035156 -23.503906 13.703125 -23.765625 C 14.378906 -24.035156 15.023438 -24.171875 15.640625 -24.171875 C 16.867188 -24.171875 17.898438 -23.851562 18.734375 -23.21875 C 19.578125 -22.59375 20.242188 -21.796875 20.734375 -20.828125 C 21.234375 -19.859375 21.585938 -18.8125 21.796875 -17.6875 C 22.003906 -16.5625 22.109375 -15.5 22.109375 -14.5 Z M 15.640625 -13.1875 C 15.640625 -13.539062 15.617188 -13.921875 15.578125 -14.328125 C 15.535156 -14.734375 15.429688 -15.113281 15.265625 -15.46875 C 15.109375 -15.820312 14.890625 -16.113281 14.609375 -16.34375 C 14.328125 -16.582031 13.96875 -16.703125 13.53125 -16.703125 C 13.0625 -16.703125 12.597656 -16.597656 12.140625 -16.390625 C 11.691406 -16.179688 11.257812 -15.914062 10.84375 -15.59375 C 10.4375 -15.28125 10.054688 -14.9375 9.703125 -14.5625 C 9.359375 -14.195312 9.054688 -13.835938 8.796875 -13.484375 L 8.34375 -9.578125 C 8.8125 -8.898438 9.382812 -8.363281 10.0625 -7.96875 C 10.738281 -7.582031 11.5 -7.390625 12.34375 -7.390625 C 12.988281 -7.390625 13.523438 -7.59375 13.953125 -8 C 14.378906 -8.40625 14.71875 -8.910156 14.96875 -9.515625 C 15.21875 -10.117188 15.390625 -10.753906 15.484375 -11.421875 C 15.585938 -12.097656 15.640625 -12.6875 15.640625 -13.1875 Z M 15.640625 -13.1875 "/></g></g></g></svg>