<svg xmlns="http://www.w3.org/2000/svg" xmlns:xlink="http://www.w3.org/1999/xlink" width="500" zoomAndPan="magnify" viewBox="0 0 375 374.999991" height="500" preserveAspectRatio="xMidYMid meet" version="1.0"><defs><clipPath id="17c15c407b"><path d="M 21 136 L 276.742188 136 L 276.742188 199 L 21 199 Z M 21 136 " clip-rule="nonzero"/></clipPath><clipPath id="6664f42bb5"><path d="M 98.25 187.59375 L 354 187.59375 L 354 240.84375 L 98.25 240.84375 Z M 98.25 187.59375 " clip-rule="nonzero"/></clipPath></defs><g clip-path="url(#17c15c407b)"><path fill="#317b22" d="M 184.792969 176.417969 C 189.789062 184.539062 196.441406 201.222656 225.574219 198.566406 C 253.6875 196 275.796875 183.347656 276.699219 169.195312 C 276.703125 169.378906 276.722656 169.554688 276.71875 169.734375 C 276.71875 169.582031 276.726562 169.441406 276.722656 169.292969 C 276.734375 169.027344 276.722656 168.761719 276.71875 168.496094 C 276.722656 168.214844 276.734375 167.933594 276.722656 167.652344 C 276.734375 167.40625 276.722656 167.164062 276.71875 166.921875 C 276.722656 166.664062 276.734375 166.40625 276.722656 166.148438 C 276.734375 165.921875 276.71875 165.699219 276.71875 165.472656 C 276.71875 165.667969 276.695312 165.863281 276.6875 166.058594 C 275.652344 152.6875 253.59375 139.113281 225.574219 136.714844 C 196.441406 134.214844 190.300781 150.253906 184.792969 157.523438 C 180.71875 162.886719 172.167969 162.375 172.167969 162.375 C 172.167969 162.375 165.117188 162.007812 150.097656 160.851562 C 135.71875 159.746094 60.464844 153.40625 46.808594 153.40625 C 33.976562 153.40625 22.019531 151.9375 21.117188 163.96875 C 21.105469 163.828125 21.082031 163.699219 21.082031 163.558594 L 21.078125 163.316406 C 21.0625 163.777344 21.0625 164.261719 21.082031 164.761719 C 21.0625 165.300781 21.054688 165.855469 21.082031 166.445312 L 21.082031 166.503906 C 21.078125 166.804688 21.066406 167.109375 21.070312 167.429688 C 21.078125 167.195312 21.09375 166.980469 21.105469 166.757812 C 22.023438 181.101562 44.890625 178.234375 44.890625 178.234375 C 44.890625 178.234375 134.996094 173.601562 150.015625 172.503906 C 166.261719 171.3125 172.167969 171.167969 172.167969 171.167969 C 172.167969 171.167969 181.183594 170.5625 184.792969 176.417969 " fill-opacity="1" fill-rule="nonzero"/></g><g clip-path="url(#6664f42bb5)"><path fill="#317b22" d="M 204.535156 205.09375 C 200.425781 205.09375 196.375 204.089844 192.746094 202.199219 L 181.847656 193.324219 C 177.121094 189.464844 171.136719 187.480469 165.042969 187.691406 L 101.164062 193.363281 C 99.542969 193.421875 98.25 194.753906 98.25 196.316406 C 98.25 197.878906 99.542969 199.113281 101.164062 199.054688 L 157.921875 196.296875 C 160.160156 196.21875 161.992188 197.839844 161.992188 199.902344 C 161.992188 201.96875 160.160156 203.667969 157.921875 203.703125 L 101.164062 205.324219 C 99.542969 205.34375 98.25 206.636719 98.25 208.199219 C 98.25 209.761719 99.542969 211.015625 101.164062 211.015625 L 157.921875 210.4375 C 160.160156 210.417969 161.992188 212.078125 161.992188 214.140625 C 161.992188 216.207031 160.160156 217.867188 157.921875 217.847656 L 101.164062 217.269531 C 99.542969 217.285156 98.25 218.542969 98.25 220.105469 C 98.25 221.667969 99.542969 222.960938 101.164062 222.996094 L 157.921875 224.617188 C 160.160156 224.65625 161.992188 226.355469 161.992188 228.417969 C 161.992188 230.484375 160.160156 232.105469 157.921875 232.027344 L 101.164062 229.269531 C 99.542969 229.210938 98.25 230.445312 98.25 232.007812 C 98.25 233.570312 99.542969 234.902344 101.164062 234.960938 L 165.042969 240.632812 C 171.136719 240.84375 177.101562 238.835938 181.847656 235 L 192.746094 226.125 C 196.394531 224.214844 200.425781 223.230469 204.535156 223.230469 C 204.535156 223.230469 265.519531 219.101562 324.382812 226.914062 C 324.382812 226.914062 353.941406 232.953125 353.941406 214.179688 C 353.941406 195.410156 324.382812 201.449219 324.382812 201.449219 C 265.519531 209.222656 204.535156 205.09375 204.535156 205.09375 Z M 204.535156 205.09375 " fill-opacity="1" fill-rule="nonzero"/></g></svg>