<svg xmlns="http://www.w3.org/2000/svg" xmlns:xlink="http://www.w3.org/1999/xlink" width="500" zoomAndPan="magnify" viewBox="0 0 375 374.999991" height="500" preserveAspectRatio="xMidYMid meet" version="1.0"><defs><g/><clipPath id="50425f988e"><path d="M 50.117188 194.113281 L 131.867188 194.113281 L 131.867188 211.363281 L 50.117188 211.363281 Z M 50.117188 194.113281 " clip-rule="nonzero"/></clipPath><clipPath id="db033be0f6"><path d="M 21 164.109375 L 102.648438 164.109375 L 102.648438 185 L 21 185 Z M 21 164.109375 " clip-rule="nonzero"/></clipPath><clipPath id="fbcd760dc7"><path d="M 30.203125 141.316406 L 122.566406 141.316406 L 122.566406 233.683594 L 30.203125 233.683594 Z M 30.203125 141.316406 " clip-rule="nonzero"/></clipPath><clipPath id="c4da223c0f"><path d="M 76.386719 141.316406 C 50.878906 141.316406 30.203125 161.996094 30.203125 187.5 C 30.203125 213.003906 50.878906 233.683594 76.386719 233.683594 C 101.890625 233.683594 122.566406 213.003906 122.566406 187.5 C 122.566406 161.996094 101.890625 141.316406 76.386719 141.316406 Z M 76.386719 141.316406 " clip-rule="nonzero"/></clipPath><clipPath id="a3c8cbbeef"><path d="M 23.039062 171 L 104.789062 171 L 104.789062 191.511719 L 23.039062 191.511719 Z M 23.039062 171 " clip-rule="nonzero"/></clipPath><clipPath id="9e4392f6c8"><path d="M 47.972656 187.222656 L 129.722656 187.222656 L 129.722656 204.472656 L 47.972656 204.472656 Z M 47.972656 187.222656 " clip-rule="nonzero"/></clipPath></defs><g clip-path="url(#50425f988e)"><path fill="#62ab37" d="M 83.949219 199.988281 C 82.640625 199.988281 81.351562 199.667969 80.199219 199.066406 L 76.730469 196.242188 C 75.226562 195.015625 73.320312 194.382812 71.382812 194.449219 L 51.054688 196.253906 C 50.539062 196.273438 50.128906 196.699219 50.128906 197.195312 C 50.128906 197.691406 50.539062 198.085938 51.054688 198.066406 L 69.117188 197.1875 C 69.828125 197.164062 70.414062 197.679688 70.414062 198.335938 C 70.414062 198.992188 69.828125 199.535156 69.117188 199.546875 L 51.054688 200.0625 C 50.539062 200.066406 50.128906 200.480469 50.128906 200.976562 C 50.128906 201.472656 50.539062 201.871094 51.054688 201.871094 L 69.117188 201.6875 C 69.828125 201.683594 70.414062 202.210938 70.414062 202.867188 C 70.414062 203.523438 69.828125 204.050781 69.117188 204.046875 L 51.054688 203.863281 C 50.539062 203.867188 50.128906 204.265625 50.128906 204.765625 C 50.128906 205.261719 50.539062 205.671875 51.054688 205.683594 L 69.117188 206.199219 C 69.828125 206.214844 70.414062 206.753906 70.414062 207.410156 C 70.414062 208.066406 69.828125 208.582031 69.117188 208.558594 L 51.054688 207.679688 C 50.539062 207.660156 50.128906 208.054688 50.128906 208.550781 C 50.128906 209.050781 50.539062 209.472656 51.054688 209.492188 L 71.382812 211.296875 C 73.320312 211.363281 75.21875 210.726562 76.730469 209.503906 L 80.199219 206.679688 C 81.359375 206.070312 82.640625 205.757812 83.949219 205.757812 C 83.949219 205.757812 103.355469 204.445312 122.085938 206.929688 C 122.085938 206.929688 131.488281 208.851562 131.488281 202.878906 C 131.488281 196.90625 122.085938 198.828125 122.085938 198.828125 C 103.355469 201.300781 83.949219 199.988281 83.949219 199.988281 Z M 83.949219 199.988281 " fill-opacity="1" fill-rule="nonzero"/></g><g clip-path="url(#db033be0f6)"><path fill="#62ab37" d="M 73.382812 177.566406 C 74.972656 180.152344 77.089844 185.464844 86.363281 184.617188 C 95.308594 183.800781 102.347656 179.773438 102.636719 175.269531 C 102.636719 175.328125 102.644531 175.382812 102.640625 175.441406 C 102.640625 175.390625 102.644531 175.347656 102.644531 175.300781 C 102.644531 175.214844 102.644531 175.132812 102.640625 175.046875 C 102.644531 174.957031 102.644531 174.867188 102.644531 174.777344 C 102.644531 174.699219 102.644531 174.621094 102.640625 174.546875 C 102.644531 174.460938 102.644531 174.378906 102.644531 174.296875 C 102.644531 174.226562 102.640625 174.15625 102.640625 174.085938 C 102.640625 174.144531 102.632812 174.207031 102.632812 174.269531 C 102.300781 170.015625 95.28125 165.695312 86.363281 164.929688 C 77.089844 164.136719 75.132812 169.242188 73.382812 171.554688 C 72.085938 173.261719 69.363281 173.097656 69.363281 173.097656 C 69.363281 173.097656 67.117188 172.980469 62.339844 172.613281 C 57.761719 172.261719 33.808594 170.242188 29.460938 170.242188 C 25.375 170.242188 21.570312 169.777344 21.285156 173.605469 C 21.28125 173.558594 21.273438 173.519531 21.273438 173.476562 L 21.269531 173.398438 C 21.265625 173.546875 21.265625 173.699219 21.273438 173.859375 C 21.265625 174.027344 21.261719 174.207031 21.273438 174.394531 L 21.273438 174.414062 C 21.269531 174.507812 21.265625 174.605469 21.269531 174.707031 C 21.269531 174.632812 21.277344 174.5625 21.28125 174.492188 C 21.570312 179.058594 28.851562 178.144531 28.851562 178.144531 C 28.851562 178.144531 57.53125 176.671875 62.3125 176.320312 C 67.484375 175.945312 69.363281 175.898438 69.363281 175.898438 C 69.363281 175.898438 72.230469 175.703125 73.382812 177.566406 " fill-opacity="1" fill-rule="nonzero"/></g><g clip-path="url(#fbcd760dc7)"><g clip-path="url(#c4da223c0f)"><path fill="#317b22" d="M 30.203125 141.316406 L 122.566406 141.316406 L 122.566406 233.683594 L 30.203125 233.683594 Z M 30.203125 141.316406 " fill-opacity="1" fill-rule="nonzero"/></g></g><g clip-path="url(#a3c8cbbeef)"><path fill="#ffffff" d="M 75.523438 183.96875 C 77.113281 186.554688 79.230469 191.863281 88.503906 191.019531 C 97.453125 190.203125 104.488281 186.175781 104.777344 181.671875 C 104.777344 181.726562 104.785156 181.785156 104.78125 181.839844 C 104.78125 181.792969 104.785156 181.746094 104.785156 181.699219 C 104.789062 181.617188 104.785156 181.53125 104.78125 181.449219 C 104.785156 181.355469 104.789062 181.269531 104.785156 181.179688 C 104.789062 181.101562 104.785156 181.023438 104.78125 180.945312 C 104.785156 180.863281 104.789062 180.78125 104.785156 180.699219 C 104.789062 180.628906 104.78125 180.554688 104.78125 180.484375 C 104.78125 180.546875 104.777344 180.609375 104.773438 180.671875 C 104.441406 176.414062 97.421875 172.09375 88.503906 171.332031 C 79.230469 170.535156 77.277344 175.640625 75.523438 177.953125 C 74.226562 179.660156 71.503906 179.5 71.503906 179.5 C 71.503906 179.5 69.261719 179.382812 64.480469 179.015625 C 59.902344 178.660156 35.949219 176.644531 31.601562 176.644531 C 27.519531 176.644531 23.710938 176.175781 23.425781 180.003906 C 23.421875 179.960938 23.414062 179.917969 23.414062 179.875 L 23.410156 179.796875 C 23.40625 179.945312 23.40625 180.097656 23.414062 180.257812 C 23.40625 180.429688 23.40625 180.605469 23.414062 180.792969 L 23.414062 180.8125 C 23.410156 180.910156 23.410156 181.003906 23.410156 181.105469 C 23.410156 181.035156 23.417969 180.964844 23.421875 180.894531 C 23.714844 185.457031 30.992188 184.546875 30.992188 184.546875 C 30.992188 184.546875 59.671875 183.070312 64.453125 182.722656 C 69.625 182.34375 71.503906 182.296875 71.503906 182.296875 C 71.503906 182.296875 74.375 182.105469 75.523438 183.96875 " fill-opacity="1" fill-rule="nonzero"/></g><g clip-path="url(#9e4392f6c8)"><path fill="#ffffff" d="M 81.808594 193.097656 C 80.5 193.097656 79.210938 192.777344 78.054688 192.175781 L 74.589844 189.355469 C 73.085938 188.125 71.179688 187.492188 69.242188 187.5625 L 48.914062 189.367188 C 48.398438 189.382812 47.988281 189.808594 47.988281 190.304688 C 47.988281 190.800781 48.398438 191.195312 48.914062 191.175781 L 66.976562 190.300781 C 67.6875 190.273438 68.269531 190.789062 68.269531 191.445312 C 68.269531 192.105469 67.6875 192.644531 66.976562 192.65625 L 48.914062 193.171875 C 48.398438 193.179688 47.988281 193.589844 47.988281 194.085938 C 47.988281 194.582031 48.398438 194.984375 48.914062 194.984375 L 66.976562 194.800781 C 67.6875 194.792969 68.269531 195.320312 68.269531 195.976562 C 68.269531 196.632812 67.6875 197.164062 66.976562 197.15625 L 48.914062 196.972656 C 48.398438 196.976562 47.988281 197.378906 47.988281 197.875 C 47.988281 198.371094 48.398438 198.78125 48.914062 198.796875 L 66.976562 199.3125 C 67.6875 199.324219 68.269531 199.863281 68.269531 200.519531 C 68.269531 201.175781 67.6875 201.691406 66.976562 201.667969 L 48.914062 200.789062 C 48.398438 200.773438 47.988281 201.164062 47.988281 201.664062 C 47.988281 202.160156 48.398438 202.582031 48.914062 202.601562 L 69.242188 204.40625 C 71.179688 204.472656 73.078125 203.835938 74.589844 202.613281 L 78.054688 199.789062 C 79.21875 199.183594 80.5 198.867188 81.808594 198.867188 C 81.808594 198.867188 101.210938 197.554688 119.941406 200.042969 C 119.941406 200.042969 129.347656 201.964844 129.347656 195.988281 C 129.347656 190.015625 119.941406 191.9375 119.941406 191.9375 C 101.210938 194.410156 81.808594 193.097656 81.808594 193.097656 Z M 81.808594 193.097656 " fill-opacity="1" fill-rule="nonzero"/></g><g fill="#317b22" fill-opacity="1"><g transform="translate(143.865098, 203.624987)"><g><path d="M 25.296875 -25.6875 C 25.296875 -23.4375 24.773438 -21.414062 23.734375 -19.625 C 22.691406 -17.832031 21.304688 -16.253906 19.578125 -14.890625 C 20.097656 -14.109375 20.632812 -13.195312 21.1875 -12.15625 C 21.738281 -11.113281 22.234375 -10.015625 22.671875 -8.859375 C 23.117188 -7.703125 23.476562 -6.546875 23.75 -5.390625 C 24.03125 -4.234375 24.171875 -3.171875 24.171875 -2.203125 C 24.171875 -1.160156 23.914062 -0.222656 23.40625 0.609375 C 22.90625 1.441406 22.050781 1.859375 20.84375 1.859375 C 19.84375 1.859375 18.972656 1.367188 18.234375 0.390625 C 17.503906 -0.585938 16.851562 -1.75 16.28125 -3.09375 C 15.71875 -4.445312 15.195312 -5.820312 14.71875 -7.21875 C 14.25 -8.625 13.800781 -9.75 13.375 -10.59375 C 12.789062 -10.394531 12.222656 -10.175781 11.671875 -9.9375 C 11.117188 -9.695312 10.550781 -9.460938 9.96875 -9.234375 C 9.925781 -8.515625 9.863281 -7.523438 9.78125 -6.265625 C 9.707031 -5.015625 9.53125 -3.769531 9.25 -2.53125 C 8.976562 -1.300781 8.5625 -0.234375 8 0.671875 C 7.445312 1.585938 6.6875 2.046875 5.71875 2.046875 C 4.644531 2.046875 3.8125 1.601562 3.21875 0.71875 C 2.632812 -0.15625 2.21875 -1.191406 1.96875 -2.390625 C 1.726562 -3.597656 1.59375 -4.828125 1.5625 -6.078125 C 1.53125 -7.328125 1.515625 -8.3125 1.515625 -9.03125 C 1.515625 -10.5625 1.546875 -12.066406 1.609375 -13.546875 C 1.671875 -15.023438 1.703125 -16.53125 1.703125 -18.0625 C 1.703125 -19.46875 1.675781 -20.867188 1.625 -22.265625 C 1.582031 -23.660156 1.5625 -25.078125 1.5625 -26.515625 C 1.5625 -26.835938 1.5625 -27.25 1.5625 -27.75 C 1.5625 -28.257812 1.582031 -28.78125 1.625 -29.3125 C 1.675781 -29.851562 1.734375 -30.367188 1.796875 -30.859375 C 1.867188 -31.347656 1.988281 -31.738281 2.15625 -32.03125 C 2.476562 -32.71875 3.21875 -33.367188 4.375 -33.984375 C 5.53125 -34.597656 6.796875 -35.140625 8.171875 -35.609375 C 9.554688 -36.085938 10.90625 -36.460938 12.21875 -36.734375 C 13.539062 -37.015625 14.53125 -37.15625 15.1875 -37.15625 C 16.84375 -37.15625 18.304688 -36.84375 19.578125 -36.21875 C 20.847656 -35.601562 21.90625 -34.765625 22.75 -33.703125 C 23.601562 -32.648438 24.238281 -31.429688 24.65625 -30.046875 C 25.082031 -28.671875 25.296875 -27.21875 25.296875 -25.6875 Z M 16.265625 -25 C 16.265625 -25.84375 16.066406 -26.484375 15.671875 -26.921875 C 15.285156 -27.367188 14.648438 -27.59375 13.765625 -27.59375 C 13.117188 -27.59375 12.460938 -27.476562 11.796875 -27.25 C 11.128906 -27.019531 10.519531 -26.757812 9.96875 -26.46875 C 10.09375 -23.894531 10.140625 -21.335938 10.109375 -18.796875 C 10.796875 -19.023438 11.492188 -19.316406 12.203125 -19.671875 C 12.921875 -20.035156 13.582031 -20.476562 14.1875 -21 C 14.789062 -21.519531 15.285156 -22.101562 15.671875 -22.75 C 16.066406 -23.40625 16.265625 -24.15625 16.265625 -25 Z M 16.265625 -25 "/></g></g></g><g fill="#317b22" fill-opacity="1"><g transform="translate(169.398215, 203.624987)"><g><path d="M 21.921875 -8.6875 C 21.921875 -7.582031 21.570312 -6.5 20.875 -5.4375 C 20.175781 -4.382812 19.296875 -3.441406 18.234375 -2.609375 C 17.179688 -1.785156 16.050781 -1.117188 14.84375 -0.609375 C 13.632812 -0.109375 12.53125 0.140625 11.53125 0.140625 C 9.800781 0.140625 8.257812 -0.285156 6.90625 -1.140625 C 5.5625 -2.003906 4.429688 -3.101562 3.515625 -4.4375 C 2.609375 -5.78125 1.914062 -7.253906 1.4375 -8.859375 C 0.96875 -10.472656 0.734375 -12.046875 0.734375 -13.578125 C 0.734375 -15.203125 0.957031 -16.941406 1.40625 -18.796875 C 1.863281 -20.648438 2.554688 -22.359375 3.484375 -23.921875 C 4.421875 -25.484375 5.59375 -26.785156 7 -27.828125 C 8.414062 -28.867188 10.101562 -29.390625 12.0625 -29.390625 C 13.164062 -29.390625 14.222656 -29.203125 15.234375 -28.828125 C 16.242188 -28.453125 17.125 -27.921875 17.875 -27.234375 C 18.625 -26.554688 19.222656 -25.742188 19.671875 -24.796875 C 20.128906 -23.859375 20.359375 -22.800781 20.359375 -21.625 C 20.359375 -20.101562 20.03125 -18.671875 19.375 -17.328125 C 18.726562 -15.992188 17.867188 -14.835938 16.796875 -13.859375 C 15.722656 -12.890625 14.484375 -12.101562 13.078125 -11.5 C 11.679688 -10.894531 10.253906 -10.5625 8.796875 -10.5 C 8.921875 -9.550781 9.300781 -8.863281 9.9375 -8.4375 C 10.570312 -8.019531 11.328125 -7.8125 12.203125 -7.8125 C 12.859375 -7.8125 13.492188 -7.972656 14.109375 -8.296875 C 14.734375 -8.628906 15.335938 -9 15.921875 -9.40625 C 16.503906 -9.8125 17.078125 -10.175781 17.640625 -10.5 C 18.210938 -10.820312 18.796875 -10.984375 19.390625 -10.984375 C 20.035156 -10.984375 20.617188 -10.769531 21.140625 -10.34375 C 21.660156 -9.925781 21.921875 -9.375 21.921875 -8.6875 Z M 14.015625 -20.65625 C 14.015625 -21.082031 13.898438 -21.519531 13.671875 -21.96875 C 13.441406 -22.425781 13.082031 -22.65625 12.59375 -22.65625 C 11.882812 -22.65625 11.285156 -22.46875 10.796875 -22.09375 C 10.304688 -21.71875 9.894531 -21.242188 9.5625 -20.671875 C 9.238281 -20.109375 8.988281 -19.5 8.8125 -18.84375 C 8.632812 -18.195312 8.53125 -17.597656 8.5 -17.046875 C 8.957031 -17.140625 9.5 -17.265625 10.125 -17.421875 C 10.757812 -17.585938 11.363281 -17.804688 11.9375 -18.078125 C 12.507812 -18.359375 13 -18.710938 13.40625 -19.140625 C 13.8125 -19.566406 14.015625 -20.070312 14.015625 -20.65625 Z M 14.015625 -20.65625 "/></g></g></g><g fill="#317b22" fill-opacity="1"><g transform="translate(191.806821, 203.624987)"><g><path d="M 19.578125 -18.75 C 19.578125 -18.582031 19.5625 -18.410156 19.53125 -18.234375 C 19.5 -18.054688 19.453125 -17.882812 19.390625 -17.71875 C 19.097656 -16.976562 18.640625 -16.351562 18.015625 -15.84375 C 17.398438 -15.34375 16.671875 -15.09375 15.828125 -15.09375 C 14.554688 -15.09375 13.691406 -15.726562 13.234375 -17 C 13.171875 -17.15625 13.140625 -17.335938 13.140625 -17.546875 C 13.140625 -17.765625 13.125 -17.988281 13.09375 -18.21875 L 13.09375 -19.625 C 13.019531 -20.082031 12.898438 -20.441406 12.734375 -20.703125 C 12.578125 -20.960938 12.304688 -21.09375 11.921875 -21.09375 C 11.359375 -21.09375 10.828125 -20.742188 10.328125 -20.046875 C 9.828125 -19.347656 9.390625 -18.515625 9.015625 -17.546875 C 8.640625 -16.585938 8.335938 -15.601562 8.109375 -14.59375 C 7.878906 -13.59375 7.765625 -12.78125 7.765625 -12.15625 C 7.765625 -11.664062 7.796875 -11.070312 7.859375 -10.375 C 7.921875 -9.675781 8.050781 -9 8.25 -8.34375 C 8.445312 -7.695312 8.71875 -7.132812 9.0625 -6.65625 C 9.40625 -6.1875 9.851562 -5.953125 10.40625 -5.953125 C 10.957031 -5.953125 11.46875 -6.125 11.9375 -6.46875 C 12.40625 -6.8125 12.867188 -7.210938 13.328125 -7.671875 C 13.753906 -8.054688 14.21875 -8.457031 14.71875 -8.875 C 15.226562 -9.300781 15.804688 -9.515625 16.453125 -9.515625 C 17.265625 -9.515625 17.90625 -9.222656 18.375 -8.640625 C 18.851562 -8.054688 19.09375 -7.390625 19.09375 -6.640625 C 19.09375 -5.535156 18.796875 -4.5 18.203125 -3.53125 C 17.617188 -2.570312 16.890625 -1.742188 16.015625 -1.046875 C 15.140625 -0.347656 14.160156 0.203125 13.078125 0.609375 C 12.003906 1.015625 10.984375 1.21875 10.015625 1.21875 C 8.253906 1.21875 6.765625 0.78125 5.546875 -0.09375 C 4.328125 -0.976562 3.34375 -2.09375 2.59375 -3.4375 C 1.84375 -4.789062 1.300781 -6.265625 0.96875 -7.859375 C 0.644531 -9.453125 0.484375 -10.96875 0.484375 -12.40625 C 0.484375 -14.0625 0.710938 -15.859375 1.171875 -17.796875 C 1.628906 -19.734375 2.328125 -21.53125 3.265625 -23.1875 C 4.210938 -24.851562 5.425781 -26.238281 6.90625 -27.34375 C 8.382812 -28.445312 10.148438 -29 12.203125 -29 C 13.472656 -29 14.570312 -28.722656 15.5 -28.171875 C 16.425781 -27.617188 17.191406 -26.894531 17.796875 -26 C 18.398438 -25.101562 18.851562 -24.101562 19.15625 -23 C 19.46875 -21.894531 19.625 -20.804688 19.625 -19.734375 C 19.625 -19.566406 19.625 -19.398438 19.625 -19.234375 C 19.625 -19.078125 19.609375 -18.914062 19.578125 -18.75 Z M 19.578125 -18.75 "/></g></g></g><g fill="#317b22" fill-opacity="1"><g transform="translate(212.653171, 203.624987)"><g><path d="M 9.515625 -34.078125 C 9.515625 -33.628906 9.394531 -33.222656 9.15625 -32.859375 C 8.914062 -32.503906 8.597656 -32.1875 8.203125 -31.90625 C 7.816406 -31.632812 7.394531 -31.425781 6.9375 -31.28125 C 6.476562 -31.132812 6.054688 -31.0625 5.671875 -31.0625 C 5.015625 -31.0625 4.441406 -31.222656 3.953125 -31.546875 C 3.460938 -31.867188 3.21875 -32.375 3.21875 -33.0625 C 3.21875 -33.550781 3.335938 -33.976562 3.578125 -34.34375 C 3.828125 -34.71875 4.128906 -35.023438 4.484375 -35.265625 C 4.847656 -35.515625 5.253906 -35.703125 5.703125 -35.828125 C 6.160156 -35.960938 6.601562 -36.03125 7.03125 -36.03125 C 7.644531 -36.03125 8.210938 -35.882812 8.734375 -35.59375 C 9.253906 -35.300781 9.515625 -34.796875 9.515625 -34.078125 Z M 9.90625 -17.484375 C 9.90625 -17.023438 9.90625 -16.539062 9.90625 -16.03125 C 9.90625 -15.53125 9.890625 -15.050781 9.859375 -14.59375 C 9.828125 -14.039062 9.8125 -13.300781 9.8125 -12.375 C 9.8125 -11.445312 9.78125 -10.445312 9.71875 -9.375 C 9.65625 -8.300781 9.550781 -7.207031 9.40625 -6.09375 C 9.257812 -4.988281 9.019531 -3.976562 8.6875 -3.0625 C 8.363281 -2.15625 7.929688 -1.414062 7.390625 -0.84375 C 6.859375 -0.28125 6.1875 0.015625 5.375 0.046875 C 4.75 0.078125 4.222656 -0.164062 3.796875 -0.6875 C 3.378906 -1.207031 3.03125 -1.878906 2.75 -2.703125 C 2.476562 -3.535156 2.273438 -4.460938 2.140625 -5.484375 C 2.015625 -6.515625 1.921875 -7.507812 1.859375 -8.46875 C 1.796875 -9.425781 1.765625 -10.3125 1.765625 -11.125 C 1.765625 -11.945312 1.765625 -12.550781 1.765625 -12.9375 C 1.765625 -13.457031 1.765625 -14.195312 1.765625 -15.15625 C 1.765625 -16.125 1.796875 -17.160156 1.859375 -18.265625 C 1.921875 -19.367188 2.039062 -20.488281 2.21875 -21.625 C 2.394531 -22.769531 2.65625 -23.8125 3 -24.75 C 3.34375 -25.695312 3.789062 -26.460938 4.34375 -27.046875 C 4.894531 -27.640625 5.597656 -27.9375 6.453125 -27.9375 C 7.328125 -27.9375 7.988281 -27.492188 8.4375 -26.609375 C 8.894531 -25.734375 9.238281 -24.707031 9.46875 -23.53125 C 9.695312 -22.363281 9.828125 -21.203125 9.859375 -20.046875 C 9.890625 -18.890625 9.90625 -18.035156 9.90625 -17.484375 Z M 9.90625 -17.484375 "/></g></g></g><g fill="#317b22" fill-opacity="1"><g transform="translate(224.565371, 203.624987)"><g><path d="M 23.828125 -14.546875 C 23.828125 -13.117188 23.671875 -11.550781 23.359375 -9.84375 C 23.054688 -8.132812 22.535156 -6.546875 21.796875 -5.078125 C 21.066406 -3.609375 20.109375 -2.382812 18.921875 -1.40625 C 17.734375 -0.4375 16.242188 0.046875 14.453125 0.046875 C 13.992188 0.046875 13.519531 0.015625 13.03125 -0.046875 C 12.550781 -0.109375 12.085938 -0.222656 11.640625 -0.390625 C 11.203125 -0.554688 10.800781 -0.773438 10.4375 -1.046875 C 10.082031 -1.328125 9.8125 -1.695312 9.625 -2.15625 L 9.1875 4.890625 C 9.144531 5.628906 9.113281 6.519531 9.09375 7.5625 C 9.082031 8.601562 8.953125 9.597656 8.703125 10.546875 C 8.460938 11.492188 8.054688 12.300781 7.484375 12.96875 C 6.921875 13.632812 6.101562 13.96875 5.03125 13.96875 C 4.414062 13.96875 3.894531 13.648438 3.46875 13.015625 C 3.039062 12.378906 2.703125 11.570312 2.453125 10.59375 C 2.210938 9.613281 2.023438 8.519531 1.890625 7.3125 C 1.765625 6.113281 1.6875 4.960938 1.65625 3.859375 C 1.625 2.753906 1.609375 1.742188 1.609375 0.828125 C 1.609375 -0.078125 1.609375 -0.742188 1.609375 -1.171875 C 1.609375 -3.347656 1.59375 -5.519531 1.5625 -7.6875 C 1.53125 -9.851562 1.515625 -12.023438 1.515625 -14.203125 C 1.515625 -14.597656 1.515625 -15.207031 1.515625 -16.03125 C 1.515625 -16.863281 1.546875 -17.769531 1.609375 -18.75 C 1.671875 -19.726562 1.773438 -20.738281 1.921875 -21.78125 C 2.078125 -22.820312 2.300781 -23.769531 2.59375 -24.625 C 2.882812 -25.488281 3.253906 -26.191406 3.703125 -26.734375 C 4.160156 -27.273438 4.71875 -27.546875 5.375 -27.546875 C 5.789062 -27.546875 6.171875 -27.421875 6.515625 -27.171875 C 6.859375 -26.929688 7.148438 -26.625 7.390625 -26.25 C 7.640625 -25.875 7.84375 -25.472656 8 -25.046875 C 8.164062 -24.628906 8.300781 -24.238281 8.40625 -23.875 C 9.40625 -25.019531 10.566406 -25.882812 11.890625 -26.46875 C 13.210938 -27.050781 14.617188 -27.34375 16.109375 -27.34375 C 17.671875 -27.34375 18.945312 -26.898438 19.9375 -26.015625 C 20.9375 -25.140625 21.71875 -24.050781 22.28125 -22.75 C 22.851562 -21.445312 23.253906 -20.054688 23.484375 -18.578125 C 23.710938 -17.097656 23.828125 -15.753906 23.828125 -14.546875 Z M 16.84375 -14.9375 C 16.84375 -15.425781 16.800781 -15.921875 16.71875 -16.421875 C 16.644531 -16.929688 16.5 -17.40625 16.28125 -17.84375 C 16.070312 -18.28125 15.769531 -18.640625 15.375 -18.921875 C 14.988281 -19.203125 14.503906 -19.34375 13.921875 -19.34375 C 13.140625 -19.34375 12.316406 -19.085938 11.453125 -18.578125 C 10.585938 -18.078125 9.941406 -17.5 9.515625 -16.84375 C 9.359375 -16.582031 9.265625 -16.160156 9.234375 -15.578125 C 9.203125 -14.992188 9.1875 -14.554688 9.1875 -14.265625 C 9.1875 -14.035156 9.191406 -13.734375 9.203125 -13.359375 C 9.222656 -12.984375 9.25 -12.597656 9.28125 -12.203125 C 9.3125 -11.816406 9.347656 -11.441406 9.390625 -11.078125 C 9.441406 -10.722656 9.519531 -10.445312 9.625 -10.25 C 9.71875 -9.957031 9.925781 -9.6875 10.25 -9.4375 C 10.582031 -9.195312 10.941406 -8.976562 11.328125 -8.78125 C 11.722656 -8.59375 12.125 -8.445312 12.53125 -8.34375 C 12.9375 -8.25 13.285156 -8.203125 13.578125 -8.203125 C 14.253906 -8.203125 14.804688 -8.460938 15.234375 -8.984375 C 15.660156 -9.503906 15.992188 -10.125 16.234375 -10.84375 C 16.484375 -11.5625 16.644531 -12.300781 16.71875 -13.0625 C 16.800781 -13.820312 16.84375 -14.445312 16.84375 -14.9375 Z M 16.84375 -14.9375 "/></g></g></g><g fill="#317b22" fill-opacity="1"><g transform="translate(249.903207, 203.624987)"><g><path d="M 21.921875 -8.6875 C 21.921875 -7.582031 21.570312 -6.5 20.875 -5.4375 C 20.175781 -4.382812 19.296875 -3.441406 18.234375 -2.609375 C 17.179688 -1.785156 16.050781 -1.117188 14.84375 -0.609375 C 13.632812 -0.109375 12.53125 0.140625 11.53125 0.140625 C 9.800781 0.140625 8.257812 -0.285156 6.90625 -1.140625 C 5.5625 -2.003906 4.429688 -3.101562 3.515625 -4.4375 C 2.609375 -5.78125 1.914062 -7.253906 1.4375 -8.859375 C 0.96875 -10.472656 0.734375 -12.046875 0.734375 -13.578125 C 0.734375 -15.203125 0.957031 -16.941406 1.40625 -18.796875 C 1.863281 -20.648438 2.554688 -22.359375 3.484375 -23.921875 C 4.421875 -25.484375 5.59375 -26.785156 7 -27.828125 C 8.414062 -28.867188 10.101562 -29.390625 12.0625 -29.390625 C 13.164062 -29.390625 14.222656 -29.203125 15.234375 -28.828125 C 16.242188 -28.453125 17.125 -27.921875 17.875 -27.234375 C 18.625 -26.554688 19.222656 -25.742188 19.671875 -24.796875 C 20.128906 -23.859375 20.359375 -22.800781 20.359375 -21.625 C 20.359375 -20.101562 20.03125 -18.671875 19.375 -17.328125 C 18.726562 -15.992188 17.867188 -14.835938 16.796875 -13.859375 C 15.722656 -12.890625 14.484375 -12.101562 13.078125 -11.5 C 11.679688 -10.894531 10.253906 -10.5625 8.796875 -10.5 C 8.921875 -9.550781 9.300781 -8.863281 9.9375 -8.4375 C 10.570312 -8.019531 11.328125 -7.8125 12.203125 -7.8125 C 12.859375 -7.8125 13.492188 -7.972656 14.109375 -8.296875 C 14.734375 -8.628906 15.335938 -9 15.921875 -9.40625 C 16.503906 -9.8125 17.078125 -10.175781 17.640625 -10.5 C 18.210938 -10.820312 18.796875 -10.984375 19.390625 -10.984375 C 20.035156 -10.984375 20.617188 -10.769531 21.140625 -10.34375 C 21.660156 -9.925781 21.921875 -9.375 21.921875 -8.6875 Z M 14.015625 -20.65625 C 14.015625 -21.082031 13.898438 -21.519531 13.671875 -21.96875 C 13.441406 -22.425781 13.082031 -22.65625 12.59375 -22.65625 C 11.882812 -22.65625 11.285156 -22.46875 10.796875 -22.09375 C 10.304688 -21.71875 9.894531 -21.242188 9.5625 -20.671875 C 9.238281 -20.109375 8.988281 -19.5 8.8125 -18.84375 C 8.632812 -18.195312 8.53125 -17.597656 8.5 -17.046875 C 8.957031 -17.140625 9.5 -17.265625 10.125 -17.421875 C 10.757812 -17.585938 11.363281 -17.804688 11.9375 -18.078125 C 12.507812 -18.359375 13 -18.710938 13.40625 -19.140625 C 13.8125 -19.566406 14.015625 -20.070312 14.015625 -20.65625 Z M 14.015625 -20.65625 "/></g></g></g><g fill="#317b22" fill-opacity="1"><g transform="translate(272.311813, 203.624987)"><g><path d="M 24.90625 -27.9375 C 24.90625 -25.226562 24.835938 -22.515625 24.703125 -19.796875 C 24.578125 -17.078125 24.414062 -14.367188 24.21875 -11.671875 C 24.1875 -11.179688 24.15625 -10.519531 24.125 -9.6875 C 24.09375 -8.863281 24.023438 -7.96875 23.921875 -7 C 23.828125 -6.039062 23.695312 -5.070312 23.53125 -4.09375 C 23.375 -3.125 23.125 -2.238281 22.78125 -1.4375 C 22.4375 -0.644531 21.992188 0 21.453125 0.5 C 20.921875 1.007812 20.265625 1.265625 19.484375 1.265625 C 18.796875 1.265625 18.179688 1.117188 17.640625 0.828125 C 17.109375 0.535156 16.660156 0.15625 16.296875 -0.3125 C 15.941406 -0.789062 15.664062 -1.328125 15.46875 -1.921875 C 15.28125 -2.523438 15.1875 -3.15625 15.1875 -3.8125 C 15.1875 -4.882812 15.21875 -5.960938 15.28125 -7.046875 C 15.34375 -8.140625 15.441406 -9.222656 15.578125 -10.296875 L 10.75 -9.8125 C 10.644531 -8.96875 10.535156 -7.953125 10.421875 -6.765625 C 10.304688 -5.578125 10.078125 -4.4375 9.734375 -3.34375 C 9.398438 -2.25 8.890625 -1.3125 8.203125 -0.53125 C 7.515625 0.25 6.570312 0.640625 5.375 0.640625 C 4.625 0.640625 4.003906 0.46875 3.515625 0.125 C 3.023438 -0.21875 2.632812 -0.65625 2.34375 -1.1875 C 2.050781 -1.726562 1.835938 -2.320312 1.703125 -2.96875 C 1.578125 -3.625 1.515625 -4.242188 1.515625 -4.828125 C 1.515625 -6.785156 1.59375 -8.734375 1.75 -10.671875 C 1.914062 -12.609375 2.03125 -14.550781 2.09375 -16.5 C 2.164062 -18.550781 2.191406 -20.609375 2.171875 -22.671875 C 2.160156 -24.742188 2.1875 -26.820312 2.25 -28.90625 C 2.28125 -29.59375 2.300781 -30.390625 2.3125 -31.296875 C 2.332031 -32.210938 2.445312 -33.066406 2.65625 -33.859375 C 2.875 -34.660156 3.234375 -35.335938 3.734375 -35.890625 C 4.242188 -36.441406 5 -36.71875 6 -36.71875 C 7.40625 -36.71875 8.460938 -36.347656 9.171875 -35.609375 C 9.890625 -34.878906 10.394531 -33.96875 10.6875 -32.875 C 10.988281 -31.789062 11.140625 -30.640625 11.140625 -29.421875 C 11.140625 -28.203125 11.140625 -27.101562 11.140625 -26.125 C 11.140625 -24.820312 11.101562 -23.539062 11.03125 -22.28125 C 10.96875 -21.03125 10.90625 -19.769531 10.84375 -18.5 L 16.0625 -19.28125 C 16.09375 -20.882812 16.125 -22.46875 16.15625 -24.03125 C 16.195312 -25.59375 16.265625 -27.15625 16.359375 -28.71875 C 16.390625 -29.457031 16.421875 -30.25 16.453125 -31.09375 C 16.484375 -31.945312 16.613281 -32.726562 16.84375 -33.4375 C 17.070312 -34.15625 17.453125 -34.75 17.984375 -35.21875 C 18.523438 -35.695312 19.332031 -35.9375 20.40625 -35.9375 C 21.320312 -35.9375 22.0625 -35.675781 22.625 -35.15625 C 23.195312 -34.632812 23.65625 -34 24 -33.25 C 24.34375 -32.5 24.578125 -31.703125 24.703125 -30.859375 C 24.835938 -30.015625 24.90625 -29.25 24.90625 -28.5625 Z M 24.90625 -27.9375 "/></g></g></g><g fill="#317b22" fill-opacity="1"><g transform="translate(298.967802, 203.624987)"><g><path d="M 22.859375 -13.96875 C 22.859375 -12.175781 22.675781 -10.398438 22.3125 -8.640625 C 21.957031 -6.878906 21.351562 -5.304688 20.5 -3.921875 C 19.65625 -2.546875 18.523438 -1.429688 17.109375 -0.578125 C 15.691406 0.265625 13.925781 0.6875 11.8125 0.6875 C 9.726562 0.6875 7.988281 0.269531 6.59375 -0.5625 C 5.195312 -1.394531 4.082031 -2.492188 3.25 -3.859375 C 2.414062 -5.222656 1.828125 -6.765625 1.484375 -8.484375 C 1.148438 -10.210938 0.984375 -11.972656 0.984375 -13.765625 C 0.984375 -15.722656 1.207031 -17.660156 1.65625 -19.578125 C 1.757812 -20.097656 1.945312 -20.820312 2.21875 -21.75 C 2.5 -22.675781 2.859375 -23.585938 3.296875 -24.484375 C 3.734375 -25.378906 4.238281 -26.148438 4.8125 -26.796875 C 5.382812 -27.453125 6.007812 -27.78125 6.6875 -27.78125 C 7.34375 -27.78125 7.863281 -27.597656 8.25 -27.234375 C 8.644531 -26.878906 8.953125 -26.429688 9.171875 -25.890625 C 9.398438 -25.359375 9.546875 -24.789062 9.609375 -24.1875 C 9.679688 -23.59375 9.71875 -23.050781 9.71875 -22.5625 C 9.71875 -21.8125 9.660156 -21.078125 9.546875 -20.359375 C 9.429688 -19.640625 9.3125 -18.925781 9.1875 -18.21875 C 9.050781 -17.238281 8.925781 -16.257812 8.8125 -15.28125 C 8.695312 -14.300781 8.640625 -13.328125 8.640625 -12.359375 C 8.640625 -11.867188 8.664062 -11.320312 8.71875 -10.71875 C 8.769531 -10.113281 8.890625 -9.535156 9.078125 -8.984375 C 9.273438 -8.429688 9.550781 -7.96875 9.90625 -7.59375 C 10.269531 -7.21875 10.773438 -7.03125 11.421875 -7.03125 C 12.273438 -7.03125 12.953125 -7.257812 13.453125 -7.71875 C 13.953125 -8.175781 14.320312 -8.742188 14.5625 -9.421875 C 14.8125 -10.109375 14.96875 -10.84375 15.03125 -11.625 C 15.101562 -12.40625 15.140625 -13.117188 15.140625 -13.765625 C 15.140625 -15.203125 15.039062 -16.609375 14.84375 -17.984375 C 14.644531 -19.367188 14.46875 -20.78125 14.3125 -22.21875 C 14.28125 -22.382812 14.265625 -22.613281 14.265625 -22.90625 C 14.265625 -23.394531 14.34375 -23.878906 14.5 -24.359375 C 14.664062 -24.847656 14.894531 -25.285156 15.1875 -25.671875 C 15.476562 -26.066406 15.832031 -26.382812 16.25 -26.625 C 16.675781 -26.875 17.148438 -27 17.671875 -27 C 18.390625 -27 19.023438 -26.742188 19.578125 -26.234375 C 20.128906 -25.734375 20.59375 -25.082031 20.96875 -24.28125 C 21.34375 -23.488281 21.648438 -22.597656 21.890625 -21.609375 C 22.140625 -20.617188 22.335938 -19.640625 22.484375 -18.671875 C 22.628906 -17.710938 22.726562 -16.8125 22.78125 -15.96875 C 22.832031 -15.125 22.859375 -14.457031 22.859375 -13.96875 Z M 22.859375 -13.96875 "/></g></g></g><g fill="#317b22" fill-opacity="1"><g transform="translate(323.329227, 203.624987)"><g><path d="M 24.5625 -16.109375 C 24.5625 -15.171875 24.488281 -14.109375 24.34375 -12.921875 C 24.195312 -11.734375 23.96875 -10.519531 23.65625 -9.28125 C 23.34375 -8.039062 22.9375 -6.832031 22.4375 -5.65625 C 21.9375 -4.488281 21.316406 -3.441406 20.578125 -2.515625 C 19.847656 -1.585938 19.003906 -0.847656 18.046875 -0.296875 C 17.085938 0.253906 15.972656 0.53125 14.703125 0.53125 C 13.367188 0.53125 12.15625 0.222656 11.0625 -0.390625 C 9.96875 -1.003906 9.03125 -1.851562 8.25 -2.9375 C 8.15625 -2.050781 7.796875 -1.273438 7.171875 -0.609375 C 6.554688 0.0546875 5.773438 0.390625 4.828125 0.390625 C 4.273438 0.390625 3.8125 0.113281 3.4375 -0.4375 C 3.0625 -0.988281 2.757812 -1.695312 2.53125 -2.5625 C 2.3125 -3.425781 2.144531 -4.378906 2.03125 -5.421875 C 1.914062 -6.460938 1.84375 -7.46875 1.8125 -8.4375 C 1.78125 -9.414062 1.765625 -10.296875 1.765625 -11.078125 C 1.765625 -11.859375 1.765625 -12.414062 1.765625 -12.75 C 1.765625 -13.851562 1.769531 -14.957031 1.78125 -16.0625 C 1.800781 -17.164062 1.828125 -18.289062 1.859375 -19.4375 C 1.859375 -19.988281 1.847656 -20.816406 1.828125 -21.921875 C 1.816406 -23.023438 1.828125 -24.253906 1.859375 -25.609375 C 1.890625 -26.960938 1.960938 -28.347656 2.078125 -29.765625 C 2.191406 -31.179688 2.394531 -32.472656 2.6875 -33.640625 C 2.976562 -34.816406 3.382812 -35.773438 3.90625 -36.515625 C 4.425781 -37.265625 5.09375 -37.660156 5.90625 -37.703125 C 6.5625 -37.703125 7.113281 -37.472656 7.5625 -37.015625 C 8.019531 -36.554688 8.40625 -35.953125 8.71875 -35.203125 C 9.03125 -34.453125 9.273438 -33.613281 9.453125 -32.6875 C 9.628906 -31.757812 9.757812 -30.832031 9.84375 -29.90625 C 9.925781 -28.976562 9.972656 -28.097656 9.984375 -27.265625 C 10.003906 -26.441406 10.015625 -25.769531 10.015625 -25.25 C 10.015625 -25.144531 10.003906 -24.921875 9.984375 -24.578125 C 9.972656 -24.242188 9.96875 -23.878906 9.96875 -23.484375 C 9.96875 -23.097656 9.96875 -22.75 9.96875 -22.4375 C 9.96875 -22.125 9.96875 -21.953125 9.96875 -21.921875 C 10.257812 -22.546875 10.679688 -23.148438 11.234375 -23.734375 C 11.785156 -24.316406 12.398438 -24.835938 13.078125 -25.296875 C 13.765625 -25.753906 14.484375 -26.128906 15.234375 -26.421875 C 15.984375 -26.710938 16.703125 -26.859375 17.390625 -26.859375 C 18.753906 -26.859375 19.898438 -26.503906 20.828125 -25.796875 C 21.753906 -25.097656 22.492188 -24.210938 23.046875 -23.140625 C 23.597656 -22.066406 23.988281 -20.90625 24.21875 -19.65625 C 24.445312 -18.40625 24.5625 -17.222656 24.5625 -16.109375 Z M 17.390625 -14.65625 C 17.390625 -15.039062 17.363281 -15.460938 17.3125 -15.921875 C 17.257812 -16.378906 17.144531 -16.800781 16.96875 -17.1875 C 16.789062 -17.582031 16.546875 -17.910156 16.234375 -18.171875 C 15.921875 -18.429688 15.523438 -18.5625 15.046875 -18.5625 C 14.523438 -18.5625 14.007812 -18.445312 13.5 -18.21875 C 13 -17.988281 12.519531 -17.691406 12.0625 -17.328125 C 11.601562 -16.972656 11.175781 -16.59375 10.78125 -16.1875 C 10.394531 -15.78125 10.054688 -15.378906 9.765625 -14.984375 L 9.28125 -10.640625 C 9.800781 -9.890625 10.4375 -9.296875 11.1875 -8.859375 C 11.9375 -8.421875 12.78125 -8.203125 13.71875 -8.203125 C 14.4375 -8.203125 15.03125 -8.429688 15.5 -8.890625 C 15.976562 -9.347656 16.351562 -9.910156 16.625 -10.578125 C 16.90625 -11.242188 17.101562 -11.945312 17.21875 -12.6875 C 17.332031 -13.4375 17.390625 -14.09375 17.390625 -14.65625 Z M 17.390625 -14.65625 "/></g></g></g></svg>